<?xml version="1.0" encoding="UTF-8"?>
<svg width="26px" height="28px" viewBox="7 5 26 28" version="1.1" xmlns="http://www.w3.org/2000/svg" xmlns:xlink="http://www.w3.org/1999/xlink">
    <!-- Generator: sketchtool 54.1 (76490) - https://sketchapp.com -->
    <title>AAF22FA2-0A9A-4905-AF25-CC762A40971C</title>
    <desc>Created with sketchtool.</desc>
    <defs>
        <filter x="-63.3%" y="-66.7%" width="230.0%" height="240.0%" filterUnits="objectBoundingBox" id="filter-1">
            <feOffset dx="0" dy="1" in="SourceAlpha" result="shadowOffsetOuter1"></feOffset>
            <feGaussianBlur stdDeviation="2.5" in="shadowOffsetOuter1" result="shadowBlurOuter1"></feGaussianBlur>
            <feColorMatrix values="0 0 0 0 0   0 0 0 0 0   0 0 0 0 0  0 0 0 0.05 0" type="matrix" in="shadowBlurOuter1" result="shadowMatrixOuter1"></feColorMatrix>
            <feMerge>
                <feMergeNode in="shadowMatrixOuter1"></feMergeNode>
                <feMergeNode in="SourceGraphic"></feMergeNode>
            </feMerge>
        </filter>
        <filter x="-44.4%" y="-40.0%" width="188.9%" height="180.0%" filterUnits="objectBoundingBox" id="filter-2">
            <feOffset dx="0" dy="1" in="SourceAlpha" result="shadowOffsetOuter1"></feOffset>
            <feGaussianBlur stdDeviation="2.5" in="shadowOffsetOuter1" result="shadowBlurOuter1"></feGaussianBlur>
            <feColorMatrix values="0 0 0 0 0   0 0 0 0 0   0 0 0 0 0  0 0 0 0.07 0" type="matrix" in="shadowBlurOuter1" result="shadowMatrixOuter1"></feColorMatrix>
            <feMerge>
                <feMergeNode in="shadowMatrixOuter1"></feMergeNode>
                <feMergeNode in="SourceGraphic"></feMergeNode>
            </feMerge>
        </filter>
    </defs>
    <g id="Registration-Form-(Online)" stroke="none" stroke-width="1" fill="none" fill-rule="evenodd">
        <g id="Registration-Form-Online-(Desktop-UI)-–-Tuition-Contract-(Split-by-Student)" transform="translate(-30.000000, -343.000000)">
            <g id="Group-4-Copy" transform="translate(20.000000, 331.000000)">
                <g id="icon-/-huge-(28x28)-/-documents" filter="url(#filter-1)" transform="translate(15.000000, 16.000000)">
                    <g filter="url(#filter-2)" transform="translate(2.000000, 1.000000)">
                        <path d="M23.7925209,12.9903587 L23.7904385,4.36859567 C23.7904385,2.00247402 21.8729275,0.0840313009 19.5068062,0.0828818878 L4.50208191,0.0714290771 C2.13306536,0.0714285714 0.214285714,1.99020822 0.214285714,4.35714286 L0.21636712,23.5493186 C0.21636712,25.9162532 2.13514676,27.8350329 4.50208141,27.8350329 L12.3553284,27.8350329 L12.3553284,25.6921757 L4.50208141,25.6921757 C3.31861409,25.6921757 2.35922426,24.7327859 2.35922426,23.5493186 L2.35714284,4.35691046 C2.35714286,3.17367554 3.31653268,2.21428571 4.5,2.21428571 L19.5051706,2.22573841 C20.6888259,2.22631348 21.6475814,3.18553484 21.6475814,4.36859567 L21.6496639,12.9908858 L23.7925209,12.9903587 Z" id="Rectangle" fill="#004ED9" fill-rule="nonzero"></path>
                        <path d="M6.71636712,6.40646144 L17.2877957,6.40646144 C17.8795294,6.40646144 18.3592243,6.88615635 18.3592243,7.47789001 L18.3592243,7.47789001 C18.3592243,8.06962367 17.8795294,8.54931858 17.2877957,8.54931858 L6.71636712,8.54931858 C6.12463346,8.54931858 5.64493855,8.06962367 5.64493855,7.47789001 L5.64493855,7.47789001 C5.64493855,6.88615635 6.12463346,6.40646144 6.71636712,6.40646144 Z" id="Rectangle" fill="#C3D6F7"></path>
                        <path d="M18.1911812,14.6906496 L20.8768955,14.6906496 C21.3187233,14.6906496 21.6768955,15.0488218 21.6768955,15.4906496 L21.6768955,26.1099441 C21.6768955,26.1271044 21.6724795,26.1439759 21.6640725,26.1589357 L19.719794,29.61864 C19.6656794,29.714933 19.5437499,29.7491254 19.4474569,29.6950108 C19.4157717,29.6772045 19.3895378,29.6511004 19.3715744,29.6195039 L17.4042484,26.1591024 C17.3956841,26.1440383 17.3911812,26.1270073 17.3911812,26.1096789 L17.3911812,15.4906496 C17.3911812,15.0488218 17.7493534,14.6906496 18.1911812,14.6906496 Z" id="Rectangle" fill="#FFC244" transform="translate(19.534038, 22.205671) rotate(40.000000) translate(-19.534038, -22.205671) "></path>
                        <path d="M6.71636712,12.8350329 L17.2877957,12.8350329 C17.8795294,12.8350329 18.3592243,13.3147278 18.3592243,13.9064614 L18.3592243,13.9064614 C18.3592243,14.4981951 17.8795294,14.97789 17.2877957,14.97789 L6.71636712,14.97789 C6.12463346,14.97789 5.64493855,14.4981951 5.64493855,13.9064614 L5.64493855,13.9064614 C5.64493855,13.3147278 6.12463346,12.8350329 6.71636712,12.8350329 Z" id="Rectangle-Copy" fill="#C3D6F7"></path>
                        <path d="M6.71636712,19.2636043 L13.0020814,19.2636043 C13.5938151,19.2636043 14.07351,19.7432992 14.07351,20.3350329 L14.07351,20.3350329 C14.07351,20.9267665 13.5938151,21.4064614 13.0020814,21.4064614 L6.71636712,21.4064614 C6.12463346,21.4064614 5.64493855,20.9267665 5.64493855,20.3350329 L5.64493855,20.3350329 C5.64493855,19.7432992 6.12463346,19.2636043 6.71636712,19.2636043 Z" id="Rectangle-Copy-2" fill="#C3D6F7"></path>
                    </g>
                </g>
            </g>
        </g>
    </g>
</svg>