<?xml version="1.0" encoding="UTF-8"?>
<svg width="18px" height="18px" viewBox="0 0 18 18" version="1.1" xmlns="http://www.w3.org/2000/svg" xmlns:xlink="http://www.w3.org/1999/xlink">
    <!-- Generator: Sketch 52.2 (67145) - http://www.bohemiancoding.com/sketch -->
    <title>icn / eye</title>
    <desc>Created with Sketch.</desc>
    <g id="icn-/-eye" stroke="none" stroke-width="1" fill="none" fill-rule="evenodd">
        <g id="eye" transform="translate(1.000000, 4.000000)" fill="#7B8AA1" fill-rule="nonzero">
            <g id="Group">
                <path d="M8,9.29741623 C5.28005888,9.29741623 2.80779729,7.97208821 0.583215204,5.32143217 C0.427212262,5.13555001 0.42721205,4.86448501 0.583214701,4.6786026 L0.583197874,4.67858847 C2.80778445,2.02791867 5.28005182,0.702583771 8,0.702583771 C10.7199411,0.702583771 13.1922027,2.02791179 15.4167848,4.67856783 C15.5727877,4.86444999 15.572788,5.13551499 15.4167853,5.3213974 L15.4168021,5.32141153 C13.1922156,7.97208133 10.7199482,9.29741623 8,9.29741623 Z M8,7.5 C9.47275933,7.5 10.6666667,6.38071187 10.6666667,5 C10.6666667,3.61928813 9.47275933,2.5 8,2.5 C6.52724067,2.5 5.33333333,3.61928813 5.33333333,5 C5.33333333,6.38071187 6.52724067,7.5 8,7.5 Z" id="Combined-Shape"></path>
            </g>
            <ellipse id="Oval-8" cx="8" cy="5" rx="1.33333333" ry="1.25"></ellipse>
        </g>
    </g>
</svg>