<svg width="10" height="12" viewBox="0 0 10 12" fill="none" 
  xmlns="http://www.w3.org/2000/svg">
  <path d="M0.330017 0V12H4.33002V9.66667H5.66335V12H9.66335V0H0.330017ZM1.66335 1.33333H2.99668V2.66667H1.66335V1.33333ZM4.33002 1.33333H5.66335V2.66667H4.33002V1.33333ZM6.99668 1.33333H8.33002V2.66667H6.99668V1.33333ZM1.66335 4H2.99668V5.33333H1.66335V4ZM4.33002 4H5.66335V5.33333H4.33002V4ZM6.99668 4H8.33002V5.33333H6.99668V4ZM1.66335 6.66667H2.99668V8H1.66335V6.66667ZM4.33002 6.66667H5.66335V8H4.33002V6.66667ZM6.99668 6.66667H8.33002V8H6.99668V6.66667ZM1.66335 9.33333H2.99668V10.6667H1.66335V9.33333ZM6.99668 9.33333H8.33002V10.6667H6.99668V9.33333Z" fill="#A4A4A4"/>
</svg>
