<svg width="11" height="9" viewBox="0 0 11 9" fill="none" xmlns="http://www.w3.org/2000/svg">
  <!-- <rect x="-2" y="-3" width="15" height="15" rx="3" fill="#4350A2"/> -->
  <path d="M10.5818 1.60843L9.74871 0.751721C9.71558 0.713855 9.66351 0.694922 9.61618 0.694922C9.56411 0.694922 9.51678 0.713855 9.48365 0.751721L3.70912 6.56885L1.60757 4.4673C1.56971 4.42943 1.52238 4.4105 1.47504 4.4105C1.42771 4.4105 1.38038 4.42943 1.34251 4.4673L0.5 5.30981C0.424268 5.38554 0.424268 5.50387 0.5 5.5796L3.1506 8.23021C3.321 8.4006 3.52926 8.5 3.70439 8.5C3.95525 8.5 4.17298 8.3154 4.25344 8.23967H4.25818L10.5865 1.87823C10.6528 1.79776 10.6528 1.67943 10.5818 1.60843Z" fill="white"/>
</svg>
