<svg width="30" height="30" viewBox="0 0 30 30" fill="none" xmlns="http://www.w3.org/2000/svg">
<path d="M8.21439 29.75H15.7177C16.3045 29.75 16.7802 29.2743 16.7802 28.6875C16.7802 28.1007 16.3045 27.625 15.7177 27.625H8.21439C7.62758 27.625 7.15189 28.1007 7.15189 28.6875C7.15189 29.2743 7.62758 29.75 8.21439 29.75Z" fill="#FFC244"/>
<path d="M15.3422 11.4682L16.8874 9.91083H18.692C18.9406 8.85033 19.0721 7.74426 19.0721 6.60722C19.0721 4.22394 18.4943 1.97668 17.472 0L19.8936 0C20.7708 2.02334 21.2574 4.25801 21.2574 6.60722C21.2574 8.53782 20.9287 10.3911 20.3248 12.1132H18.9291L21.0055 14.3532C18.5521 18.6115 14.9525 22.116 10.6324 24.4375C10.6324 24.4375 9.95118 24.8743 9.95763 24.7954C10.0422 23.7611 10.8584 22.3575 11.0193 21.7816C11.0457 21.6873 11.4908 21.3655 11.4908 21.3655C14.1879 19.5802 16.5072 17.2627 18.3016 14.5612L15.3422 11.4682Z" fill="#C3D6F7"/>
<path d="M19.5977 0C15.7392 7.75447 12.6314 15.9483 10.3696 24.4863C10.1843 25.1858 10.0046 25.8877 9.83074 26.5918C9.71608 27.056 8.82312 27.7546 7.15189 28.6875C9.41621 18.6444 12.8229 9.03397 17.2284 0L19.5977 0Z" fill="#004ED9"/>
<path d="M19.9019 29.75H22.2446C22.8314 29.75 23.3071 29.2743 23.3071 28.6875C23.3071 28.1007 22.8314 27.625 22.2446 27.625H19.9019C19.3151 27.625 18.8394 28.1007 18.8394 28.6875C18.8394 29.2743 19.3151 29.75 19.9019 29.75Z" fill="#FFC244"/>
</svg>
