<?xml version="1.0" encoding="UTF-8"?>
<svg width="17px" height="30px" viewBox="0 0 17 30" version="1.1" xmlns="http://www.w3.org/2000/svg" xmlns:xlink="http://www.w3.org/1999/xlink">
    <!-- Generator: sketchtool 54.1 (76490) - https://sketchapp.com -->
    <title>5D4BBEC2-82C1-46C2-B107-ED16BDB5CA7E</title>
    <desc>Created with sketchtool.</desc>
    <g id="Registration-Form-(Online)" stroke="none" stroke-width="1" fill="none" fill-rule="evenodd">
        <g id="Registration-Form-Online-(Desktop-UI)-–-Tuition-Contract-(Split-by-Fee)" transform="translate(-42.000000, -285.000000)" fill-rule="nonzero">
            <g id="Group-4" transform="translate(35.000000, 285.000000)">
                <g id="icon-/-huge-(28x28)-/-documents">
                    <g id="Group" transform="translate(7.000000, 0.000000)">
                        <path d="M1.21438994,29.75 L8.71771381,29.75 C9.30451635,29.75 9.78021381,29.2743025 9.78021381,28.6875 C9.78021381,28.1006975 9.30451635,27.625 8.71771381,27.625 L1.21438994,27.625 C0.627587394,27.625 0.15188994,28.1006975 0.15188994,28.6875 C0.15188994,29.2743025 0.627587394,29.75 1.21438994,29.75 Z" id="Path-11" fill="#DBDCE3"></path>
                        <path d="M8.34221578,11.4681533 L9.88742767,9.91081663 L11.6920337,9.91081663 C11.940592,8.85031521 12.0721199,7.74424145 12.0721199,6.60720664 C12.0721199,4.22392369 11.4942612,1.97666591 10.4720496,-1.33468137e-05 L12.8936343,-1.33468136e-05 C13.770785,2.02332339 14.2573795,4.25799401 14.2573795,6.60720664 C14.2573795,8.53781111 13.9287481,10.3910573 13.3247888,12.1132233 L11.9290761,12.1132233 L14.0055065,14.3531508 C11.5520894,18.6115041 7.95250231,22.1159407 3.63237953,24.4374867 C3.17824775,24.7286647 2.95333143,24.8479661 2.95763057,24.7953909 C3.04220956,23.7610542 3.85839259,22.3574465 4.01932103,21.7815484 C4.03688717,21.7186863 4.19405347,21.5799948 4.49081992,21.365474 C7.18790908,19.5801971 9.50717737,17.262713 11.3015988,14.5612015 L8.34221578,11.4681533 Z" id="Path" fill="#CACBD7"></path>
                        <path d="M12.5977242,-1.33468137e-05 C8.73916645,7.75445739 5.63141084,15.9482614 3.369606,24.4862562 C3.18428974,25.185799 3.00465235,25.8876523 2.83074616,26.5917639 C2.71608067,27.0560216 1.8231286,27.7546003 0.15188994,28.6875 C2.41621583,18.6443627 5.82294506,9.03395774 10.228376,-1.33468137e-05 L12.5977242,-1.33468137e-05 Z" id="Path" fill="#A4A8BE"></path>
                        <path d="M12.9018899,29.7499867 L15.2446037,29.7499867 C15.8314063,29.7499867 16.3071037,29.2742892 16.3071037,28.6874867 C16.3071037,28.1006841 15.8314063,27.6249867 15.2446037,27.6249867 L12.9018899,27.6249867 C12.3150874,27.6249867 11.8393899,28.1006841 11.8393899,28.6874867 C11.8393899,29.2742892 12.3150874,29.7499867 12.9018899,29.7499867 Z" id="Path-11" fill="#DBDCE3"></path>
                    </g>
                </g>
            </g>
        </g>
    </g>
</svg>
