<svg width="40" height="40" viewBox="0 0 40 40" fill="none" xmlns="http://www.w3.org/2000/svg">
<path d="M11.4346 39H21.5654C22.3577 39 23 38.3284 23 37.5C23 36.6716 22.3577 36 21.5654 36H11.4346C10.6423 36 10 36.6716 10 37.5C10 38.3284 10.6423 39 11.4346 39Z" fill="#FFC244"/>
<path d="M20.1479 15.2555L22.1991 13.1838H24.5946C24.9246 11.7731 25.0992 10.3018 25.0992 8.78922C25.0992 5.61887 24.3321 2.62947 22.9751 0L26.1897 0C27.3541 2.69153 28 5.66419 28 8.78922C28 11.3574 27.5638 13.8227 26.762 16.1136H24.9093L27.6656 19.0932C24.4088 24.7579 19.6306 29.4196 13.8958 32.5079C13.8958 32.5079 12.9915 33.0889 13.0001 32.984C13.1124 31.608 14.1958 29.7409 14.4094 28.9748C14.4444 28.8494 15.0353 28.4213 15.0353 28.4213C18.6156 26.0465 21.6943 22.9636 24.0763 19.37L20.1479 15.2555Z" fill="#C3D6F7"/>
<path d="M26 0C21.0396 10.2717 17.0443 21.1254 14.1366 32.435C13.8984 33.3616 13.6674 34.2913 13.4439 35.2239C13.2964 35.8389 12.1485 36.7643 10 38C12.911 24.6967 17.2905 11.9666 22.954 0L26 0Z" fill="#004ED9"/>
<path d="M26.4269 39H29.5731C30.3612 39 31 38.3284 31 37.5C31 36.6716 30.3612 36 29.5731 36H26.4269C25.6388 36 25 36.6716 25 37.5C25 38.3284 25.6388 39 26.4269 39Z" fill="#FFC244"/>
</svg>
