<svg width="40" height="40" viewBox="0 0 40 40" fill="none" xmlns="http://www.w3.org/2000/svg">
<g clip-path="url(#clip0)">
<path fill-rule="evenodd" clip-rule="evenodd" d="M30 12L27.3333 11.0426V7.89447H23.3293C22.5929 7.89447 21.996 7.30565 21.996 6.57931V2.63033H12.6667V10.4897L12.3951 10.3633C12.0734 10.2136 11.7044 10.1968 11.3701 10.3168L10 10.8087L10 2.63033C10 1.17764 11.1939 0 12.6667 0H22.8093C23.165 0 23.506 0.140204 23.7564 0.389429L29.6137 6.21961C29.8612 6.4659 30 6.79861 30 7.14534V12Z" fill="#FFC244"/>
<path fill-rule="evenodd" clip-rule="evenodd" d="M14.3305 33.6946C14.3881 33.723 14.4472 33.7492 14.5076 33.7731L17.9363 35.1291L11.0891 37.8372C9.80524 38.3449 8.3857 37.6256 7.91843 36.2306L1.14986 16.0231C0.682586 14.6281 1.34453 13.0856 2.62835 12.5778L11.4698 9.08105C11.7799 8.95842 12.1222 8.9755 12.4206 9.12851L19 12.5018L18.0408 15.3654L17.9528 15.1025L14.4624 16.4829C13.8205 16.7368 13.1108 16.3771 12.8771 15.6796L11.6069 11.8874L3.47442 15.1038L10.243 35.3112L14.3305 33.6946Z" fill="#004ED9"/>
<path fill-rule="evenodd" clip-rule="evenodd" d="M23.543 9.49849L33.0943 12.7842C33.3444 12.8703 33.5502 13.0519 33.6668 13.2893L37.3564 20.806C37.4736 21.0448 37.4908 21.3204 37.4044 21.5719L37.0841 22.5032L37.0988 22.5333L37.0765 22.5255L32.0835 37.0468C31.6192 38.3973 30.1333 39.1104 28.7647 38.6396L15.1354 33.951C13.7668 33.4802 13.0337 32.0037 13.4981 30.6532L20.2242 11.0913C20.6886 9.74079 22.1744 9.02768 23.543 9.49849ZM31.4658 14.9609L30.0587 19.0083C29.8773 19.53 30.1529 20.1008 30.6741 20.2834L34.6142 21.6632L29.6141 36.187L15.9624 31.503L22.6936 11.9511L31.4658 14.9609Z" fill="#C3D6F7"/>
</g>
<defs>
<clipPath id="clip0">
<rect width="40" height="40" fill="white"/>
</clipPath>
</defs>
</svg>
