<svg width="30" height="30" viewBox="0 0 30 30" fill="none" xmlns="http://www.w3.org/2000/svg">
<path fill-rule="evenodd" clip-rule="evenodd" d="M21.9515 9.529L20.0819 8.84852V6.61084H17.2747C16.7584 6.61084 16.3399 6.19231 16.3399 5.67603V2.86914H9.79905V8.45546L9.60868 8.36564C9.38313 8.25921 9.12441 8.24733 8.89006 8.33263L7.92944 8.68226V2.86914C7.92944 1.83659 8.7665 0.999535 9.79905 0.999535H16.9101C17.1595 0.999535 17.3985 1.09919 17.5741 1.27634L21.6807 5.42036C21.8542 5.59542 21.9515 5.83191 21.9515 6.07836V9.529Z" fill="#DBDCE3"/>
<path fill-rule="evenodd" clip-rule="evenodd" d="M11.0521 25.4521C11.0957 25.4718 11.1403 25.49 11.186 25.5066L13.7773 26.4498L8.6023 28.3333C7.63202 28.6865 6.55916 28.1862 6.206 27.2159L1.09045 13.161C0.737297 12.1908 1.23758 11.1179 2.20787 10.7647L8.89006 8.33263C9.12441 8.24733 9.38313 8.25921 9.60868 8.36564L14.5812 10.7119L13.8563 12.7036L13.7898 12.5207L11.1518 13.4808C10.6667 13.6574 10.1303 13.4073 9.95368 12.9221L8.99367 10.2845L2.84731 12.5216L7.96286 26.5765L11.0521 25.4521Z" fill="#A4A8BE"/>
<path fill-rule="evenodd" clip-rule="evenodd" d="M24.2371 10.3609C24.4878 10.4521 24.6916 10.6398 24.8033 10.8821L27.2223 16.1317C27.3326 16.3711 27.3439 16.6444 27.2538 16.8922L23.245 27.9062C22.8918 28.8764 21.819 29.3767 20.8487 29.0236L11.186 25.5066C10.2157 25.1535 9.71542 24.0806 10.0686 23.1103L15.1841 9.05546C15.5373 8.08518 16.6101 7.5849 17.5804 7.93805L24.2371 10.3609ZM23.0873 11.932L16.941 9.69491L11.8254 23.7498L21.4881 27.2667L25.324 16.7279L22.7473 15.7901C22.2283 15.6012 21.9607 15.0273 22.1496 14.5083L23.0873 11.932Z" fill="#CACBD7"/>
</svg>
