<svg width="11" height="16" viewBox="0 0 11 16" fill="none" xmlns="http://www.w3.org/2000/svg">
<path d="M9.622 10.6C9.622 11.5067 9.30467 12.2773 8.67 12.912C8.03533 13.5353 7.191 13.9263 6.137 14.085V15.955H4.403V14.119C3.64367 14.0623 2.941 13.915 2.295 13.677C1.66033 13.439 1.105 13.1217 0.629 12.725L1.36 11.144C1.938 11.5747 2.52167 11.892 3.111 12.096C3.71167 12.3 4.35767 12.402 5.049 12.402C5.81967 12.402 6.409 12.2547 6.817 11.96C7.23633 11.6653 7.446 11.2403 7.446 10.685C7.446 10.3563 7.33267 10.09 7.106 9.886C6.87933 9.682 6.596 9.52333 6.256 9.41C5.92733 9.28533 5.457 9.14367 4.845 8.985C3.98367 8.76967 3.28667 8.55433 2.754 8.339C2.22133 8.11233 1.76233 7.77233 1.377 7.319C0.991667 6.85433 0.799 6.23667 0.799 5.466C0.799 4.55933 1.12767 3.783 1.785 3.137C2.45367 2.491 3.315 2.08867 4.369 1.93V0.0599991H6.103V1.913C6.749 1.99233 7.361 2.151 7.939 2.389C8.52833 2.627 9.01567 2.92167 9.401 3.273L8.67 4.854C7.616 4.02667 6.48833 3.613 5.287 3.613C4.58433 3.613 4.02333 3.766 3.604 4.072C3.196 4.378 2.992 4.803 2.992 5.347C2.992 5.721 3.111 6.027 3.349 6.265C3.587 6.49167 3.88733 6.673 4.25 6.809C4.624 6.945 5.12267 7.08667 5.746 7.234C6.57333 7.438 7.242 7.64767 7.752 7.863C8.27333 8.067 8.71533 8.39 9.078 8.832C9.44067 9.274 9.622 9.86333 9.622 10.6Z" fill="white"/>
</svg>
