<?xml version="1.0" encoding="UTF-8"?>

<svg version="1.1" viewBox="0 0 24 24" 
  xmlns="http://www.w3.org/2000/svg" 
  xmlns:xlink="http://www.w3.org/1999/xlink">
  <defs>
    <path id="a" d="m15.627 19.796c0-0.4156 0.33691-0.75251 0.75251-0.75251h3.1265c0.55228 0 1-0.44772 1-1v-3.25c0-0.41421 0.33579-0.75 0.75-0.75 0.41421 0 0.75 0.33579 0.75 0.75v3.75c0 1.1046-0.89543 2-2 2l-3.6265 0.0038162c-0.41494 6.62e-4 -0.75185-0.32729-0.75251-0.74222-6e-7 -3.996e-4 0-0.0086848 0-0.0090843zm-11.121 0.74749c-1.1046 0-2-0.89543-2-2v-3.75c0-0.41421 0.33579-0.75 0.75-0.75 0.41421 0 0.75 0.33579 0.75 0.75v3.25c0 0.55228 0.44772 1 1 1h2.3443c0.41558 0 0.75247 0.33689 0.75247 0.75247 0 0.41497-0.3364 0.75136-0.75136 0.75136-2.4628e-4 0-0.94871-0.0012771-2.8454-0.0038311zm8.5922-1.4864c0.41433 6.748e-4 0.7498 0.33687 0.74957 0.7512-2e-7 2.711e-4 -4e-7 5.422e-4 -9e-7 8.134e-4 -6.738e-4 0.41375-0.33663 0.74862-0.75039 0.74795l-2.5-0.0040716c-0.41433-6.748e-4 -0.7498-0.33687-0.74957-0.7512 1.4e-7 -2.711e-4 4.4e-7 -5.422e-4 8.8e-7 -8.133e-4 6.7384e-4 -0.41375 0.33663-0.74862 0.75039-0.74795l2.5 0.0040715zm-1.1012-15.512c0.41421-2.2487e-4 0.75017 0.33538 0.7504 0.74958l0.0048655 9.1396 1.3559-1.3083c0.27799-0.26823 0.72078-0.26032 0.989 0.017669 0.0042619 0.004417 0.0084655 0.0088898 0.01261 0.013418 0.2712 0.29629 0.26117 0.75354-0.022752 1.0377l-2.3802 2.3824c-0.39039 0.39066-1.0236 0.39088-1.4142 4.872e-4l-2.436e-4 -2.436e-4 -2.3585-2.359c-0.29289-0.29289-0.29289-0.76777 0-1.0607s0.76777-0.29289 1.0607 0l1.2578 1.2578-0.0048538-9.1201c-2.205e-4 -0.41421 0.33539-0.75018 0.7496-0.75041z" />
  </defs>
  <g fill-rule="evenodd">
    <mask id="b" fill="#FFFFFF">
      <use xlink:href="#a" />
    </mask>
    <use fill="#FFFFFF" fill-rule="nonzero" xlink:href="#a" />
    <g fill="#fff" mask="url(#b)">
      <rect width="24" height="24" rx="3" />
    </g>
  </g>
</svg>