<svg width="12" height="14" viewBox="0 0 12 14" fill="none" xmlns="http://www.w3.org/2000/svg">
<path d="M6.66603 5.00065H10.3327L6.66603 1.33398V5.00065ZM1.99936 0.333984H7.33269L11.3327 4.33398V12.334C11.3327 12.6876 11.1922 13.0267 10.9422 13.2768C10.6921 13.5268 10.353 13.6673 9.99936 13.6673H1.99269C1.81796 13.6671 1.64498 13.6325 1.48366 13.5653C1.32235 13.4982 1.17587 13.3999 1.05263 13.276C0.929382 13.1521 0.831793 13.0052 0.765453 12.8435C0.699112 12.6819 0.665325 12.5087 0.666026 12.334L0.672693 1.66732C0.672693 0.931318 1.26203 0.333984 1.99936 0.333984ZM7.99936 11.002V9.66865H1.99269V11.002H7.99936ZM9.99936 8.33532V7.00198H1.99269V8.33532H9.99936Z" fill="white"/>
</svg>
