<?xml version="1.0" encoding="UTF-8"?>

<svg version="1.1" viewBox="0 0 28 22" 
  xmlns="http://www.w3.org/2000/svg">
  <defs>
    <path id="b" d="m2-1.1239e-13l7.6709 1.0717e-13 4.8577 4.8428v12.195c0 1.1046-0.89543 2-2 2h-10.529c-1.1046 0-2-0.89543-2-2l-2.7756e-14 -15.037c-1.3527e-16 -1.1046 0.89543-2 2-2z" />
  </defs>
  <g fill="none" fill-rule="evenodd">
    <g transform="translate(-1036 -535)">
      <g transform="translate(380 217)">
        <g transform="translate(0 153)">
          <g transform="translate(475 46)">
            <g transform="translate(168 40)">
              <g transform="translate(12 78)">
                <g transform="translate(19.456 12.077) rotate(15) translate(-7.5 -9.5)">
                  <path d="m2-1.7875e-13h10.5c1.1046-2.0291e-16 2 0.89543 2 2v14.988c0 1.1046-0.89543 2-2 2h-10.5c-1.1046 0-2-0.89543-2-2v-14.988c-1.3527e-16 -1.1046 0.89543-2 2-2z" fill="#F1F9FF" />
                  <path d="m2 0h10.5c1.1046-2.0291e-16 2 0.89543 2 2v14.988c0 1.1046-0.89543 2-2 2h-10.5c-1.1046 0-2-0.89543-2-2v-14.988c-1.3527e-16 -1.1046 0.89543-2 2-2zm0 1c-0.55228 0-1 0.44772-1 1v14.988c0 0.55228 0.44772 1 1 1h10.5c0.55228 0 1-0.44772 1-1v-14.988c0-0.55228-0.44772-1-1-1h-10.5z" fill="#97CDF4" fill-rule="nonzero" />
                  <path d="m5.1383 4.5771l5.4526-0.85891c0.27278-0.042969 0.52874 0.14333 0.57171 0.41611 0.004054 0.025736 0.0060902 0.051749 0.0060902 0.077802v7.912c0 0.70327-0.5395 1.265-1.3816 1.4719-0.92531 0.22237-1.8174-0.15389-1.9956-0.84254-0.17746-0.69019 0.42859-1.4296 1.3531-1.6543 0.4175-0.10003 0.82946-0.079253 1.1733 0.038472v-4.5232c0-0.27614-0.22386-0.5-0.5-0.5-0.029327 0-0.058598 0.0025802-0.087472 0.0077109l-3.7302 0.66281c-0.23801 0.042291-0.41168 0.24881-0.41252 0.49055l-0.020728 5.9504c-0.0039611 0.60247-0.56485 1.1957-1.3698 1.3888-0.91343 0.22237-1.872-0.20006-1.9742-0.83177-0.17508-0.68173 0.42305-1.4135 1.3396-1.6366 0.41196-0.10003 0.8152-0.080022 1.1535 0.035394v-7.1108c0-0.24611 0.17909-0.45561 0.4222-0.49391z" fill="#97CDF4" />
                </g>
                <g transform="translate(10.438 12.297) rotate(-15) translate(-7.5 -10)">
                  <g transform="translate(0)">
                    <mask id="a" fill="white">
                      <use xlink:href="#b" />
                    </mask>
                    <use fill="#F1F9FF" xlink:href="#b" />
                    <path d="m9.6709 1.3511e-13l4.8577 4.8428v12.195c0 1.1046-0.89543 2-2 2h-10.529c-1.1046 0-2-0.89543-2-2l-2.7756e-14 -15.037c-1.3527e-16 -1.1046 0.89543-2 2-2l7.6709 1.3511e-13zm-0.41332 1h-7.2575c-0.55228 0-1 0.44772-1 1v15.037c0 0.55228 0.44772 1 1 1h10.529c0.55228 0 1-0.44772 1-1v-11.779l-4.271-4.258z" fill="#97CDF4" fill-rule="nonzero" mask="url(#a)" />
                    <path d="m2.8848 18.107l0.0026424-2-1-0.0013212-0.0026424 2 1 0.0013194zm0.0052848-4l0.0026424-2-1-0.0013212-0.0026424 2 1 0.0013194zm0.0052848-4l0.0026424-2-1-0.0013212-0.0026424 2 1 0.0013194zm0.0052848-4l0.0026424-2-1-0.0013212-0.0026424 2 1 0.0013194zm0.0052848-4l0.0025918-1.9617-1-0.0013212-0.0025918 1.9617 1 0.0013212z" fill="#97CDF4" fill-rule="nonzero" mask="url(#a)" />
                    <path d="m12.508 18.142l0.0026424-2-1-0.0013212-0.0026424 2 1 0.0013194zm0.0052848-4l0.0026424-2-1-0.0013212-0.0026424 2 1 0.0013194zm0.0052848-4l0.0026424-2-1-0.0013212-0.0026424 2 1 0.0013194zm0.0052847-4l0.0026424-2-1-0.0013212-0.0026424 2 1 0.0013194zm0.0052848-4l0.0025918-1.9617-1-0.0013212-0.0025918 1.9617 1 0.0013212z" fill="#97CDF4" fill-rule="nonzero" mask="url(#a)" />
                  </g>
                  <path d="m9.5187 0l5.0098 5.0098h-3.0098c-1.1046 0-2-0.89543-2-2v-3.0098z" fill="#97CDF4" />
                  <path d="m5.4853 11.848v-4.6581c0-0.27614 0.22386-0.5 0.5-0.5 0.10819 0 0.21345 0.035089 0.3 0.1l3.1054 2.3291c0.22091 0.16569 0.26569 0.47909 0.1 0.7-0.028427 0.037903-0.062097 0.071573-0.1 0.1l-3.1054 2.3291c-0.22091 0.16569-0.53431 0.12091-0.7-0.1-0.064911-0.086548-0.1-0.19181-0.1-0.3z" fill="#97CDF4" />
                </g>
              </g>
            </g>
          </g>
        </g>
      </g>
    </g>
  </g>
</svg>