<?xml version="1.0" encoding="UTF-8"?>

<svg version="1.1" viewBox="0 0 17 21" 
  xmlns="http://www.w3.org/2000/svg">
  <g fill="none" fill-rule="evenodd">
    <g transform="translate(-1040 -503)">
      <g transform="translate(380 217)">
        <g transform="translate(0 153)">
          <g transform="translate(475 46)">
            <g transform="translate(168 40)">
              <g transform="translate(17 47)">
                <path d="m2 0.5c-0.82843 0-1.5 0.67157-1.5 1.5v16.864c0 0.82843 0.67157 1.5 1.5 1.5h13c0.82843 0 1.5-0.67157 1.5-1.5v-16.864c0-0.82843-0.67157-1.5-1.5-1.5h-13z" fill="#F1F9FF" stroke="#97CDF4" />
                <circle cx="7.3409" cy="6.5682" r="1.9318" fill="#97CDF4" />
                <path d="m0 15.313l2.9223-2.9557c0.58245-0.5891 1.5322-0.59449 2.1213-0.01204 0.0040362 0.0039906 0.0080497 0.0080041 0.01204 0.01204l1.2296 1.2437c0.58245 0.5891 1.5322 0.59449 2.1213 0.01204 0.0040362-0.0039906 0.0080497-0.0080041 0.01204-0.01204l4.3582-4.408c0.55879-0.56517 1.4614-0.59639 2.0579-0.071186l2.1653 1.9065-0.021407 6.8443c-0.0051706 1.6532-1.3468 2.9906-3 2.9906h-10.979c-1.6569 0-3-1.3431-3-3l-2.4071e-10 -2.5503z" fill="#97CDF4" />
              </g>
            </g>
          </g>
        </g>
      </g>
    </g>
  </g>
</svg>