<svg width="11" height="16" viewBox="0 0 11 16" fill="none" 
  xmlns="http://www.w3.org/2000/svg">
  <path fill-rule="evenodd" clip-rule="evenodd" d="M0 5.05C0 2.26096 2.26096 0 5.05 0C7.83904 0 10.1 2.26096 10.1 5.05C10.1 6.5614 9.4871 8.19217 8.48008 9.42871C8.34659 9.59865 8.14384 9.69987 7.92457 9.69987C7.53677 9.69987 7.22239 9.3855 7.22239 8.9977C7.22239 8.82821 7.28272 8.6679 7.38668 8.54695L7.38671 8.5469C7.39448 8.53534 7.39841 8.5295 7.40251 8.52379C7.4067 8.51798 7.41107 8.5123 7.41989 8.50085C8.20516 7.5148 8.69565 6.21856 8.69565 5.05C8.69565 3.03656 7.06344 1.40435 5.05 1.40435C3.03656 1.40435 1.40435 3.03656 1.40435 5.05C1.40435 6.23971 1.91295 7.56121 2.72101 8.55159C2.75798 8.5969 2.78767 8.64655 2.80881 8.69722C2.85297 8.79034 2.87618 8.89242 2.87618 8.9977C2.87618 9.3855 2.56181 9.69987 2.17401 9.69987C1.95162 9.69987 1.74641 9.59573 1.61549 9.42328C0.61079 8.18666 0 6.5588 0 5.05ZM2.79383 12.5069C2.37961 12.5069 2.04383 12.1711 2.04383 11.7569C2.04383 11.3427 2.37961 11.0069 2.79383 11.0069H7.2825C7.69671 11.0069 8.0325 11.3427 8.0325 11.7569C8.0325 12.1711 7.69671 12.5069 7.2825 12.5069H2.79383ZM3.29363 14.3238C3.29363 14.738 3.62941 15.0738 4.04363 15.0738H6.05104C6.46526 15.0738 6.80104 14.738 6.80104 14.3238C6.80104 13.9096 6.46526 13.5738 6.05104 13.5738H4.04363C3.62941 13.5738 3.29363 13.9096 3.29363 14.3238Z" fill="#979797"/>
  <mask id="mask0" mask-type="alpha" maskUnits="userSpaceOnUse" x="0" y="0" width="11" height="16">
    <path fill-rule="evenodd" clip-rule="evenodd" d="M0 5.05C0 2.26096 2.26096 0 5.05 0C7.83904 0 10.1 2.26096 10.1 5.05C10.1 6.5614 9.4871 8.19217 8.48008 9.42871C8.34659 9.59865 8.14384 9.69987 7.92457 9.69987C7.53677 9.69987 7.22239 9.3855 7.22239 8.9977C7.22239 8.82821 7.28272 8.6679 7.38668 8.54695L7.38671 8.5469C7.39448 8.53534 7.39841 8.5295 7.40251 8.52379C7.4067 8.51798 7.41107 8.5123 7.41989 8.50085C8.20516 7.5148 8.69565 6.21856 8.69565 5.05C8.69565 3.03656 7.06344 1.40435 5.05 1.40435C3.03656 1.40435 1.40435 3.03656 1.40435 5.05C1.40435 6.23971 1.91295 7.56121 2.72101 8.55159C2.75798 8.5969 2.78767 8.64655 2.80881 8.69722C2.85297 8.79034 2.87618 8.89242 2.87618 8.9977C2.87618 9.3855 2.56181 9.69987 2.17401 9.69987C1.95162 9.69987 1.74641 9.59573 1.61549 9.42328C0.61079 8.18666 0 6.5588 0 5.05ZM2.79383 12.5069C2.37961 12.5069 2.04383 12.1711 2.04383 11.7569C2.04383 11.3427 2.37961 11.0069 2.79383 11.0069H7.2825C7.69671 11.0069 8.0325 11.3427 8.0325 11.7569C8.0325 12.1711 7.69671 12.5069 7.2825 12.5069H2.79383ZM3.29363 14.3238C3.29363 14.738 3.62941 15.0738 4.04363 15.0738H6.05104C6.46526 15.0738 6.80104 14.738 6.80104 14.3238C6.80104 13.9096 6.46526 13.5738 6.05104 13.5738H4.04363C3.62941 13.5738 3.29363 13.9096 3.29363 14.3238Z" fill="white"/>
  </mask>
  <g mask="url(#mask0)">
    <rect x="-3" y="-0.799805" width="16" height="16" rx="3" fill="#B2B6CA"/>
  </g>
</svg>
