<svg width="40" height="40" viewBox="0 0 40 40" fill="none" xmlns="http://www.w3.org/2000/svg">
<g clip-path="url(#clip0)">
<path d="M21.3077 36V33.3846H6.92308C6.20086 33.3846 5.61538 32.7991 5.61538 32.0769V7.23077H34.3846V26.8462H37V5.92308C37 3.75642 35.2436 2 33.0769 2H6.92308C4.75642 2 3 3.75642 3 5.92308V32.0769C3 34.2436 4.75642 36 6.92308 36H21.3077Z" fill="#004ED9"/>
<path fill-rule="evenodd" clip-rule="evenodd" d="M13 12C13 11.4477 13.5818 11 14.2995 11H24.6998L24.7005 12L24.7005 13H14.2995C13.5818 13 13 12.5523 13 12ZM26 12C26 12.5523 25.4182 13 24.7005 13L24.7005 12L24.6998 11C25.4175 11 26 11.4477 26 12Z" fill="#004ED9"/>
<rect x="9" y="18" width="22" height="3" rx="1.5" fill="#C3D6F7"/>
<path d="M20.5238 26.1181H10.5714C9.70355 26.1181 9 26.7897 9 27.6181C9 28.4466 9.70355 29.1181 10.5714 29.1181H20.5238V26.1181Z" fill="#C3D6F7"/>
<path fill-rule="evenodd" clip-rule="evenodd" d="M32.0901 31.587L34.8658 36.3947C35.1724 36.9258 34.9904 37.6048 34.4594 37.9114L32.5363 39.0217C32.0053 39.3283 31.3262 39.1464 31.0196 38.6153L28.2439 33.8076L26.5359 34.7938C26.0048 35.1004 25.3258 34.9184 25.0192 34.3874C24.9025 34.1853 24.8525 33.9515 24.8762 33.7194L25.6041 26.5946C25.6664 25.9846 26.2115 25.5406 26.8215 25.6029C26.9396 25.615 27.0549 25.6459 27.1632 25.6945L33.6974 28.6265C34.2568 28.8775 34.5069 29.5345 34.2558 30.094C34.1603 30.3069 34.0001 30.4843 33.798 30.601L32.0901 31.587Z" fill="#FFC244"/>
</g>
<defs>
<clipPath id="clip0">
<rect width="40" height="40" fill="white"/>
</clipPath>
</defs>
</svg>
