<svg width="30" height="30" viewBox="0 0 30 30" fill="none" xmlns="http://www.w3.org/2000/svg">
<g clip-path="url(#clip0)">
<path d="M16 27V25H4.99996C4.44767 25 3.99996 24.5523 3.99996 24V5H26V20H28V4C28 2.34315 26.6568 1 25 1H4.99996C3.3431 1 1.99996 2.34315 1.99996 4V24C1.99996 25.6569 3.3431 27 4.99996 27H16Z" fill="#A4A8BE"/>
<path fill-rule="evenodd" clip-rule="evenodd" d="M10.0125 9.06618C10.0125 8.5139 10.4602 8.06618 11.0125 8.06618H19.0161L19.0167 9.06618L19.0166 10.0662H11.0125C10.4602 10.0662 10.0125 9.61847 10.0125 9.06618ZM20.0167 9.06618C20.0167 9.61847 19.5689 10.0662 19.0166 10.0662L19.0167 9.06618L19.0161 8.06618C19.5684 8.06618 20.0167 8.5139 20.0167 9.06618Z" fill="#A4A8BE"/>
<rect x="5.99996" y="13" width="18" height="3" rx="1.5" fill="#CACBD7"/>
<path d="M17 19H7.49996C6.67153 19 5.99996 19.6716 5.99996 20.5C5.99996 21.3284 6.67153 22 7.49996 22H17V19Z" fill="#CACBD7"/>
<path fill-rule="evenodd" clip-rule="evenodd" d="M23.9419 23.4059L26.0355 27.0322C26.2668 27.4327 26.1295 27.9449 25.729 28.1762L24.2785 29.0136C23.8779 29.2449 23.3657 29.1077 23.1345 28.7071L21.0408 25.0808L19.7525 25.8246C19.3519 26.0559 18.8397 25.9186 18.6085 25.5181C18.5205 25.3656 18.4827 25.1893 18.5006 25.0142L19.0497 19.6402C19.0967 19.1801 19.5078 18.8452 19.9679 18.8922C20.057 18.9013 20.144 18.9246 20.2256 18.9613L25.1542 21.1728C25.5762 21.3621 25.7648 21.8577 25.5754 22.2797C25.5034 22.4403 25.3825 22.5741 25.2301 22.6621L23.9419 23.4059Z" fill="#DBDCE3"/>
</g>
<defs>
<clipPath id="clip0">
<rect width="30" height="30" fill="white"/>
</clipPath>
</defs>
</svg>
