<?xml version="1.0" encoding="UTF-8"?>
<svg width="27px" height="29px" viewBox="5 4 27 29" version="1.1" xmlns="http://www.w3.org/2000/svg" xmlns:xlink="http://www.w3.org/1999/xlink">
    <!-- Generator: sketchtool 54.1 (76490) - https://sketchapp.com -->
    <title>4422F15A-6049-4F54-AD67-0392CB9C6211</title>
    <desc>Created with sketchtool.</desc>
    <defs>
        <filter x="-50.0%" y="-40.0%" width="190.0%" height="186.7%" filterUnits="objectBoundingBox" id="filter-1">
            <feOffset dx="0" dy="1" in="SourceAlpha" result="shadowOffsetOuter1"></feOffset>
            <feGaussianBlur stdDeviation="2.5" in="shadowOffsetOuter1" result="shadowBlurOuter1"></feGaussianBlur>
            <feColorMatrix values="0 0 0 0 0   0 0 0 0 0   0 0 0 0 0  0 0 0 0.07 0" type="matrix" in="shadowBlurOuter1" result="shadowMatrixOuter1"></feColorMatrix>
            <feMerge>
                <feMergeNode in="shadowMatrixOuter1"></feMergeNode>
                <feMergeNode in="SourceGraphic"></feMergeNode>
            </feMerge>
        </filter>
    </defs>
    <g id="Registration-Form-(Online)" stroke="none" stroke-width="1" fill="none" fill-rule="evenodd">
        <g id="Registration-Form-Online-(Desktop-UI)-–-Genetal-Information" transform="translate(-33.000000, -159.000000)">
            <g id="icon-/-custom-(30x30)-/-General-Information" filter="url(#filter-1)" transform="translate(36.061952, 161.000000)">
                <path d="" id="Rectangle-Copy" stroke="#004ED9" stroke-width="2"></path>
                <path d="M16,26 L16,28 L5,28 C3.34314575,28 2,26.6568542 2,25 L2,5 C2,3.34314575 3.34314575,2 5,2 L25,2 C26.6568542,2 28,3.34314575 28,5 L28,21 L26,21 L26,5 C26,4.44771525 25.5522847,4 25,4 L5,4 C4.44771525,4 4,4.44771525 4,5 L4,25 C4,25.5522847 4.44771525,26 5,26 L16,26 Z M3,4 L27,4 L27,6 L3,6 L3,4 Z" id="Shape" fill="#004ED9" fill-rule="nonzero"></path>
                <path d="M11.0125524,10.0661855 C14.3458858,10.0661855 17.0139343,10.0661855 19.0166979,10.0661855" id="Path-9" stroke="#004ED9" stroke-width="2" stroke-linecap="round"></path>
                <rect id="Rectangle" fill="#C3D6F7" x="6" y="14" width="18" height="3" rx="1.5"></rect>
                <path d="M17,20 L17,23 L7.5,23 C6.67157288,23 6,22.3284271 6,21.5 C6,20.6715729 6.67157288,20 7.5,20 L17,20 Z" id="Combined-Shape" fill="#C3D6F7"></path>
                <path d="M23.9088742,25.312315 L23.9088742,29.4996316 C23.9088742,29.9621498 23.5339291,30.3370949 23.0714109,30.3370949 L21.3964843,30.3370949 C20.9339661,30.3370949 20.559021,29.9621498 20.559021,29.4996316 L20.559021,25.312315 L19.0713812,25.312315 C18.608863,25.312315 18.2339179,24.9373699 18.2339179,24.4748517 C18.2339179,24.2988275 18.2893823,24.1272785 18.3924329,23.9845721 L21.5549389,19.6050751 C21.8257128,19.2301024 22.349194,19.1456325 22.7241667,19.4164065 C22.7967349,19.4688091 22.8604327,19.5325069 22.9128354,19.6050751 L26.0753414,23.9845721 C26.3461153,24.3595449 26.2616455,24.883026 25.8866727,25.1537999 C25.7439663,25.2568505 25.5724173,25.312315 25.3963931,25.312315 L23.9088742,25.312315 Z" id="Path" fill="#FFC244" transform="translate(22.233918, 24.797462) rotate(-30.000000) translate(-22.233918, -24.797462) "></path>
            </g>
        </g>
    </g>
</svg>
