<svg width="24" height="24" viewBox="0 0 24 24" fill="none" 
  xmlns="http://www.w3.org/2000/svg">
  <path d="M12 15L20 17L12 19L4 17L12 15Z" fill="#4350A2"/>
  <path d="M4 22V18L12 20L20 18V22L12 24L4 22Z" fill="#4350A2"/>
  <path d="M6 9C6.5 11 7.5 12 9 13" stroke="#4350A2"/>
  <path d="M10 10V14H6L10 10Z" fill="#4350A2"/>
  <path d="M18 9C17.5 11 16.5 12 15 13" stroke="#4350A2"/>
  <path d="M14 10V14H18L14 10Z" fill="#4350A2"/>
  <path d="M15 1C15 0.447715 15.4477 0 16 0H20C20.5523 0 21 0.447715 21 1V7C21 7.55228 20.5523 8 20 8H16C15.4477 8 15 7.55228 15 7V1Z" fill="#4350A2"/>
  <path d="M16 2H20V3H16V2Z" fill="white"/>
  <path d="M16 4H19V5H16V4Z" fill="white"/>
  <path d="M3 1C3 0.447715 3.44772 0 4 0H8C8.55228 0 9 0.447715 9 1V7C9 7.55228 8.55228 8 8 8H4C3.44772 8 3 7.55228 3 7V1Z" fill="#4350A2"/>
  <path d="M4 2H8V3H4V2Z" fill="white"/>
  <path d="M4 4H7V5H4V4Z" fill="white"/>
</svg>
