<svg width="24" height="24" viewBox="0 0 24 24" fill="none" 
  xmlns="http://www.w3.org/2000/svg">
  <path fill-rule="evenodd" clip-rule="evenodd" d="M13 3H6.00002C4.89402 3 4.01002 3.896 4.01002 5L4.00002 19C3.99896 19.2621 4.04964 19.5218 4.14916 19.7643C4.24867 20.0068 4.39505 20.2272 4.57992 20.413C4.76478 20.5988 4.9845 20.7463 5.22647 20.847C5.46845 20.9478 5.72792 20.9997 5.99002 21H17C17.5304 21 18.0392 20.7893 18.4142 20.4142C18.7893 20.0391 19 19.5304 19 19V9L13 3ZM13 9V5.5L16.5 9H13Z" fill="#4350A2"/>
  <path d="M6 9H11V10H6V9Z" fill="white"/>
  <path d="M6 6H11V7H6V6Z" fill="white"/>
  <path d="M14 16H16V17H14V16Z" fill="white"/>
  <path d="M14 13H17V14H14V13Z" fill="white"/>
  <path d="M12 15C12 15.5933 11.8241 16.1734 11.4944 16.6667C11.1648 17.1601 10.6962 17.5446 10.1481 17.7716C9.59987 17.9987 8.99667 18.0581 8.41473 17.9424C7.83279 17.8266 7.29824 17.5409 6.87868 17.1213C6.45912 16.7018 6.1734 16.1672 6.05764 15.5853C5.94189 15.0033 6.0013 14.4001 6.22836 13.8519C6.45542 13.3038 6.83994 12.8352 7.33329 12.5056C7.82664 12.1759 8.40666 12 9 12V15H12Z" fill="white"/>
  <path d="M12 14C12 13.7374 11.9483 13.4773 11.8478 13.2346C11.7472 12.992 11.5999 12.7715 11.4142 12.5858C11.2285 12.4001 11.008 12.2528 10.7654 12.1522C10.5227 12.0517 10.2626 12 10 12L10 14H12Z" fill="white"/>
</svg>
