<svg width="24" height="24" viewBox="0 0 24 24" fill="none" 
  xmlns="http://www.w3.org/2000/svg">
  <path d="M20 12.1875C20 6.38851 16.8006 3 12 3C7.19939 3 4 6.38851 4 12.1875M4 14C4 17.5 9 16.5 12 16" stroke="#4350A2"/>
  <path fill-rule="evenodd" clip-rule="evenodd" d="M7.98625 18.017C8.96353 19.2255 10.3014 20 12 20C16 20 18 15.7046 18 11.5625C18 7.42036 15.6005 5 12 5C8.39954 5 6 7.42036 6 11.5625C6 12.7063 6.15251 13.8618 6.45752 14.9353C6.6101 14.9648 6.78667 14.9888 6.99004 15.0044C7.61862 15.0528 8.32835 15.0128 9.06535 14.9297C9.32341 13.8238 10.3155 13 11.5 13H12.5C13.8807 13 15 14.1193 15 15.5C15 16.8807 13.8807 18 12.5 18H11.5C11.1274 18 10.7738 17.9185 10.4561 17.7723C9.67386 17.8883 8.82061 17.9895 7.98625 18.017Z" fill="#4350A2"/>
  <path d="M12.5 14C13.3284 14 14 14.6716 14 15.5C14 16.3284 13.3284 17 12.5 17L11.5 17C10.6716 17 10 16.3284 10 15.5C10 14.6716 10.6716 14 11.5 14L12.5 14Z" fill="#4350A2"/>
  <path d="M2 11.25C2 10.0074 3.00736 9 4.25 9C4.66421 9 5 9.33579 5 9.75V15.25C5 15.6642 4.66421 16 4.25 16C3.00736 16 2 14.9926 2 13.75V11.25Z" fill="#4350A2"/>
  <path d="M22 11.25C22 10.0074 20.9926 9 19.75 9C19.3358 9 19 9.33579 19 9.75V15.25C19 15.6642 19.3358 16 19.75 16C20.9926 16 22 14.9926 22 13.75V11.25Z" fill="#4350A2"/>
</svg>
