<svg width="24" height="24" viewBox="0 0 24 24" fill="none" 
  xmlns="http://www.w3.org/2000/svg">
  <path d="M7 14H16V17.8842C16 18.1914 15.8947 18.4502 15.6842 18.6604C15.4737 18.8706 15.1984 18.9838 14.8583 19H8L5 21.5V19H4.11741C3.80972 19 3.55061 18.8868 3.34008 18.6604C3.12955 18.434 3.01619 18.1753 3 17.8842V10.3028C3 9.9956 3.11336 9.72878 3.34008 9.50238C3.5668 9.27599 3.82591 9.17087 4.11741 9.18705H7V14ZM19.8826 3.00162C20.2065 3.00162 20.4737 3.10673 20.6842 3.31695C20.8947 3.52718 21 3.80208 21 4.14168V11.8842C21 12.1914 20.8947 12.4502 20.6842 12.6604C20.4737 12.8706 20.2065 12.9838 19.8826 13H19V15.5L16 13H8V4.14168C8 3.81826 8.10526 3.54335 8.31579 3.31695C8.52632 3.09056 8.79352 2.98545 9.11741 3.00162H19.8826Z" fill="#4350A2"/>
  <path d="M11 6H18V7H11V6Z" fill="white"/>
  <path d="M11 9H16V10H11V9Z" fill="white"/>
</svg>
