<svg width="24" height="24" viewBox="0 0 24 24" fill="none" 
  xmlns="http://www.w3.org/2000/svg">
  <path fill-rule="evenodd" clip-rule="evenodd" d="M17.3879 11.9573C17.3879 12.209 17.3693 12.4514 17.3413 12.6844L18.898 13.9149C19.0472 14.0267 19.0844 14.2225 18.9912 14.3903L17.4998 16.9724C17.4065 17.1402 17.2108 17.2054 17.043 17.1402L15.188 16.3944C14.8058 16.6834 14.3863 16.9351 13.9296 17.1215L13.6499 19.0977C13.6313 19.2841 13.4728 19.4146 13.2864 19.4146H10.3035C10.117 19.4146 9.96787 19.2841 9.93059 19.0977L9.65094 17.1215C9.19418 16.9351 8.78402 16.6927 8.39251 16.3944L6.53751 17.1402C6.36972 17.1961 6.17396 17.1402 6.08075 16.9724L4.58928 14.3903C4.50539 14.2318 4.54267 14.0267 4.6825 13.9149L6.25786 12.6844C6.22057 12.4514 6.20193 12.1997 6.20193 11.9573C6.20193 11.715 6.22989 11.4633 6.26718 11.2302L4.69182 9.99977C4.54267 9.88791 4.50539 9.69216 4.5986 9.52437L6.09007 6.94227C6.18328 6.77448 6.37904 6.70923 6.54683 6.77448L8.40184 7.52021C8.78402 7.23124 9.2035 6.97956 9.66026 6.79313L9.93991 4.81694C9.96787 4.6305 10.117 4.5 10.3035 4.5H13.2864C13.4728 4.5 13.6313 4.6305 13.6592 4.81694L13.9389 6.79313C14.3957 6.97956 14.8058 7.22192 15.1973 7.52021L17.0523 6.77448C17.2201 6.71855 17.4159 6.77448 17.5091 6.94227L19.0005 9.52437C19.0844 9.68284 19.0472 9.88791 18.9073 9.99977L17.332 11.2302C17.3693 11.4633 17.3879 11.7056 17.3879 11.9573ZM8.99842 11.9573C8.99842 13.4954 10.2568 14.7538 11.7949 14.7538C13.333 14.7538 14.5914 13.4954 14.5914 11.9573C14.5914 10.4192 13.333 9.16082 11.7949 9.16082C10.2568 9.16082 8.99842 10.4192 8.99842 11.9573Z" fill="#4350A2"/>
</svg>
