<svg width="22" height="14" viewBox="0 0 22 14" fill="none" 
  xmlns="http://www.w3.org/2000/svg">
  <path d="M14.023 3.36483C13.411 3.14327 12.7779 2.98213 12.1237 2.88142C11.4695 2.78071 10.7731 2.78071 10.0345 2.88142C9.00048 3.00227 8.05084 3.29434 7.18561 3.75761C6.85171 3.9364 6.53509 4.13318 6.23575 4.34796C5.75944 4.68973 5.3269 5.07708 4.93813 5.51C4.30504 6.21498 3.81966 7.02067 3.48201 7.92708C3.14436 8.83348 2.96499 9.78018 2.94388 10.7672V11.2204C2.94388 11.4218 2.87002 11.5829 2.7223 11.7038C2.57458 11.8246 2.3952 11.8951 2.18417 11.9153H0.728058C0.517026 11.9153 0.348201 11.8448 0.221583 11.7038C0.094964 11.5628 0.0211031 11.4016 0 11.2204V10.7974C0 9.46797 0.242686 8.18893 0.728058 6.96025C1.21343 5.73156 1.87818 4.64387 2.7223 3.69718C3.56643 2.75049 4.57938 1.95487 5.76115 1.31031C6.94293 0.665758 8.21966 0.262911 9.59137 0.101772C10.8153 -0.059367 11.9971 -0.0291534 13.1367 0.192413C14.2763 0.413979 15.3314 0.786612 16.3022 1.31031C16.4077 1.39088 16.471 1.49159 16.4921 1.61245C16.5132 1.7333 16.4604 1.83401 16.3338 1.91458C16.0384 2.13615 15.6902 2.38793 15.2892 2.66992C14.8882 2.95192 14.5823 3.17348 14.3712 3.33462C14.2446 3.41519 14.1285 3.42526 14.023 3.36483ZM20.9237 6.05384C21.6412 7.46381 22 8.95434 22 10.5254V11.2204C22 11.4218 21.9261 11.5829 21.7784 11.7038C21.6307 11.8246 21.4513 11.8951 21.2403 11.9153H19.8158C19.6048 11.9153 19.4254 11.8448 19.2777 11.7038C19.13 11.5628 19.0561 11.4016 19.0561 11.2204V10.5254C19.0561 9.78018 18.94 9.02484 18.7079 8.25943C18.6657 8.11843 18.6868 8.00765 18.7712 7.92708L20.3223 5.99341C20.4067 5.8927 20.5228 5.84234 20.6705 5.84234C20.8182 5.84234 20.9026 5.91284 20.9237 6.05384ZM18.1698 3.12017C18.3386 2.99932 18.5074 2.94896 18.6763 2.96911C18.8451 2.98925 18.9928 3.04967 19.1194 3.15039C19.246 3.2511 19.3199 3.39209 19.341 3.57338C19.3621 3.75466 19.3094 3.92587 19.1827 4.08701L12.7568 13.1842L12.6619 13.2749L12.5669 13.3957C12.1237 13.7986 11.5962 14 10.9842 14C10.3722 14 9.85515 13.7986 9.43309 13.3957C9.01103 12.9929 8.8 12.4994 8.8 11.9153C8.8 11.3311 9.01103 10.8376 9.43309 10.4348C9.4753 10.3945 9.51751 10.3643 9.55971 10.3442C9.60192 10.324 9.64412 10.2938 9.68633 10.2535L18.1698 3.12017Z" fill="#4350A2"/>
  <path fill-rule="evenodd" clip-rule="evenodd" d="M11 1.075C11.5109 1.075 11.925 1.48914 11.925 2V4C11.925 4.51086 11.5109 4.925 11 4.925C10.4891 4.925 10.075 4.51086 10.075 4V2C10.075 1.48914 10.4891 1.075 11 1.075ZM4.17287 3.47396C4.5486 3.12782 5.13379 3.15181 5.47993 3.52753L6.23575 4.34796L7.18032 5.37326C7.52645 5.74898 7.50247 6.33417 7.12675 6.68031C6.75102 7.02645 6.16583 7.00247 5.8197 6.62674L4.11931 4.78101C3.77317 4.40529 3.79715 3.8201 4.17287 3.47396ZM0.0750055 11C0.0750055 10.4891 0.489142 10.075 1.00001 10.075H4.00001C4.51087 10.075 4.92501 10.4891 4.92501 11C4.92501 11.5109 4.51087 11.925 4.00001 11.925H1.00001C0.489142 11.925 0.0750055 11.5109 0.0750055 11Z" fill="#4350A2"/>
</svg>
