<svg width="24" height="24" viewBox="0 0 24 24" fill="none" 
  xmlns="http://www.w3.org/2000/svg">
  <path d="M5 13C4.44772 13 4 12.5523 4 12V5C4 4.44772 4.44772 4 5 4H10C10.5523 4 11 4.44772 11 5V12C11 12.5523 10.5523 13 10 13H5ZM5 20C4.44772 20 4 19.5523 4 19V16C4 15.4477 4.44772 15 5 15H10C10.5523 15 11 15.4477 11 16V19C11 19.5523 10.5523 20 10 20H5ZM14 20C13.4477 20 13 19.5523 13 19V12C13 11.4477 13.4477 11 14 11H19C19.5523 11 20 11.4477 20 12V19C20 19.5523 19.5523 20 19 20H14ZM13 5C13 4.44772 13.4477 4 14 4H19C19.5523 4 20 4.44772 20 5V8C20 8.55228 19.5523 9 19 9H14C13.4477 9 13 8.55228 13 8V5Z" fill="#4350A2"/>
</svg>
