<svg width="24" height="24" viewBox="0 0 24 24" fill="none" 
  xmlns="http://www.w3.org/2000/svg">
  <path d="M8.54545 5.94922C9.23261 5.94922 9.89161 6.22219 10.3775 6.70808C10.8634 7.19397 11.1364 7.85298 11.1364 8.54013C11.1364 9.22728 10.8634 9.88629 10.3775 10.3722C9.89161 10.8581 9.23261 11.131 8.54545 11.131C7.8583 11.131 7.1993 10.8581 6.71341 10.3722C6.22752 9.88629 5.95455 9.22728 5.95455 8.54013C5.95455 7.85298 6.22752 7.19397 6.71341 6.70808C7.1993 6.22219 7.8583 5.94922 8.54545 5.94922ZM15.4545 5.94922C16.1417 5.94922 16.8007 6.22219 17.2866 6.70808C17.7725 7.19397 18.0455 7.85298 18.0455 8.54013C18.0455 9.22728 17.7725 9.88629 17.2866 10.3722C16.8007 10.8581 16.1417 11.131 15.4545 11.131C14.7674 11.131 14.1084 10.8581 13.6225 10.3722C13.1366 9.88629 12.8636 9.22728 12.8636 8.54013C12.8636 7.85298 13.1366 7.19397 13.6225 6.70808C14.1084 6.22219 14.7674 5.94922 15.4545 5.94922ZM8.54545 12.8583C11.8843 12.8583 14.5909 14.0182 14.5909 15.4492V18.0401H2.5V15.4492C2.5 14.0182 5.20664 12.8583 8.54545 12.8583ZM15.4545 12.8583C18.7934 12.8583 21.5 14.0182 21.5 15.4492V18.0401H16.3182V15.4492C16.3182 14.4845 15.7482 13.5924 14.7852 12.8739L15.4545 12.8583Z" fill="#4350A2"/>
</svg>
 