<svg width="24" height="24" viewBox="0 0 24 24" fill="none" 
  xmlns="http://www.w3.org/2000/svg">
  <path d="M5.25521 8.64583C5.08507 8.57292 5 8.48177 5 8.3724C5 8.26302 5.08507 8.17188 5.25521 8.09896L11.4167 5.10938C11.5625 5.03646 11.7569 5 12 5C12.2431 5 12.4375 5.03646 12.5833 5.10938L18.7448 8.09896C18.9149 8.17188 19 8.26302 19 8.3724C19 8.48177 18.9149 8.57292 18.7448 8.64583L12.5833 11.6354C12.4375 11.7083 12.2431 11.7448 12 11.7448C11.7569 11.7448 11.5625 11.7083 11.4167 11.6354L5.25521 8.64583ZM18.7448 11.7083C18.9149 11.7813 19 11.8785 19 12C19 12.1215 18.9149 12.2188 18.7448 12.2917L12.5833 15.2448C12.3889 15.342 12.1944 15.3906 12 15.3906C11.8056 15.3906 11.6111 15.342 11.4167 15.2448L5.25521 12.2917C5.08507 12.2188 5 12.1215 5 12C5 11.8785 5.08507 11.7813 5.25521 11.7083C5.91146 11.3924 6.3125 11.1979 6.45833 11.125C6.60417 11.0278 6.76215 11.0278 6.93229 11.125L11.4167 13.3125C11.5625 13.3854 11.7569 13.4219 12 13.4219C12.2431 13.4219 12.4375 13.3854 12.5833 13.3125C15.5243 11.8785 17.0434 11.1372 17.1406 11.0885C17.2622 11.0399 17.3715 11.0399 17.4688 11.0885L18.7448 11.7083ZM18.7448 15.3542C18.9149 15.4271 19 15.5182 19 15.6276C19 15.737 18.9149 15.8281 18.7448 15.901L12.5833 18.8906C12.4375 18.9635 12.2431 19 12 19C11.7569 19 11.5625 18.9635 11.4167 18.8906L5.25521 15.901C5.08507 15.8281 5 15.737 5 15.6276C5 15.5182 5.08507 15.4271 5.25521 15.3542C5.91146 15.0139 6.3125 14.8073 6.45833 14.7344C6.57986 14.6615 6.73785 14.6736 6.93229 14.7708L11.4167 16.9219C11.5625 16.9948 11.7569 17.0313 12 17.0313C12.2431 17.0313 12.4375 16.9948 12.5833 16.9219C15.5243 15.5121 17.0434 14.783 17.1406 14.7344C17.2622 14.6858 17.3715 14.6858 17.4688 14.7344L18.7448 15.3542Z" fill="#4350A2"/>
</svg>
