<svg width="24" height="24" viewBox="0 0 24 24" fill="none" xmlns="http://www.w3.org/2000/svg">
  <mask id="mask0" mask-type="alpha" maskUnits="userSpaceOnUse" x="3" y="4" width="18" height="16">
    <path fill-rule="evenodd" clip-rule="evenodd" d="M4.38996 4H19.61C20.3765 4 21 4.64824 21 5.44502V13.8261V15.3795C21 16.1763 20.3765 16.8246 19.61 16.8246H14.5334L14.9134 18.9162H16.0425C16.3304 18.9162 16.5637 19.1589 16.5637 19.4581C16.5637 19.7574 16.3304 20 16.0425 20H14.4813H9.51864H7.95751C7.66964 20 7.43627 19.7574 7.43627 19.4581C7.43627 19.1589 7.66964 18.9162 7.95751 18.9162H9.08664L9.46666 16.8246H4.38996C3.62354 16.8246 3 16.1763 3 15.3795V13.8261V5.44502C3 4.64824 3.62354 4 4.38996 4ZM19.6074 5.0834H4.38738C4.19577 5.0834 4.03988 5.24546 4.03988 5.44466V13.2839H19.9549V5.44466C19.9549 5.24546 19.7991 5.0834 19.6074 5.0834ZM12 6.25235C10.3044 6.25235 8.92475 7.68661 8.92475 9.44946C8.92475 11.2123 10.3044 12.6466 12 12.6466C13.6957 12.6466 15.0753 11.2123 15.0753 9.44946C15.0753 7.68661 13.6957 6.25235 12 6.25235ZM12.2624 10.8228L13.7373 8.93792C13.919 8.70577 13.8852 8.36446 13.6618 8.1756C13.4385 7.98666 13.1102 8.02192 12.9286 8.25399L11.7673 9.7381L10.9839 9.13769C10.7522 8.9601 10.4259 9.01147 10.2551 9.25228C10.0843 9.49317 10.1336 9.83239 10.3653 10.01L11.5487 10.917C11.6417 10.9883 11.7501 11.0228 11.8577 11.0228C12.0095 11.0228 12.1596 10.9541 12.2624 10.8228Z" fill="white"/>
  </mask>
  <g mask="url(#mask0)">
    <rect width="24" height="24" fill="white"/>
  </g>
</svg>
