<svg width="30" height="30" viewBox="0 0 30 30" fill="none" xmlns="http://www.w3.org/2000/svg">
<path d="M6 9.5C6 8.67157 6.67157 8 7.5 8H21.5C22.3284 8 23 8.67157 23 9.5C23 10.3284 22.3284 11 21.5 11H7.5C6.67157 11 6 10.3284 6 9.5Z" fill="#CACBD7"/>
<path d="M4 3C2.34315 3 1 4.34314 1 6V24.8697C1 26.1719 2.54545 26.8556 3.50901 25.9796L7.60054 22.2601C7.78461 22.0927 8.02445 22 8.27321 22H16.0164C16.0055 21.8347 16 21.668 16 21.5C16 20.9863 16.0516 20.4847 16.15 20H8.27321C7.52692 20 6.80741 20.2782 6.2552 20.7802L3 23.7394V6C3 5.44772 3.44771 5 4 5H25C25.5523 5 26 5.44772 26 6V14.4268C26.7242 14.6827 27.3973 15.0467 28 15.4995V6C28 4.34315 26.6569 3 25 3H4Z" fill="#A4A8BE"/>
<path fill-rule="evenodd" clip-rule="evenodd" d="M23.5 27C26.5376 27 29 24.5376 29 21.5C29 18.4624 26.5376 16 23.5 16C20.4624 16 18 18.4624 18 21.5C18 24.5376 20.4624 27 23.5 27ZM25.8995 19.1851C26.2523 18.8491 26.8196 18.8491 27.1724 19.1851C27.5321 19.5277 27.5321 20.0884 27.1724 20.431L23.2349 24.181C22.8821 24.5171 22.3148 24.5171 21.962 24.181L20.212 22.5144C19.8523 22.1718 19.8523 21.611 20.212 21.2684C20.5648 20.9324 21.1321 20.9324 21.4849 21.2684L22.5985 22.3289L25.8995 19.1851Z" fill="#DBDCE3"/>
<path d="M7.5 14C6.67157 14 6 14.6716 6 15.5C6 16.3284 6.67157 17 7.5 17H17.4995C18.6027 15.5312 20.2327 14.4806 22.1089 14.1288C21.9229 14.046 21.7168 14 21.5 14H7.5Z" fill="#CACBD7"/>
</svg>
