<svg width="40" height="40" viewBox="0 0 40 40" fill="none" xmlns="http://www.w3.org/2000/svg">
<path d="M7.875 12.875C7.875 11.7704 8.77043 10.875 9.875 10.875H29.25C30.3546 10.875 31.25 11.7704 31.25 12.875V13C31.25 14.1046 30.3546 15 29.25 15H9.875C8.77043 15 7.875 14.1046 7.875 13V12.875Z" fill="#C3D6F7"/>
<path d="M5.11111 4C2.84061 4 1 5.83893 1 8.10736V33.9423C1 35.7252 3.11784 36.6612 4.43827 35.4619L10.0452 30.3693C10.2974 30.1402 10.6261 30.0133 10.967 30.0133H21.578C21.5631 29.787 21.5556 29.5588 21.5556 29.3287C21.5556 28.6254 21.6263 27.9386 21.7611 27.275H10.967C9.94429 27.275 8.9583 27.6559 8.20156 28.3432L3.74074 32.3948V8.10736C3.74074 7.35122 4.35428 6.73824 5.11111 6.73824H33.8889C34.6457 6.73824 35.2593 7.35122 35.2593 8.10736V19.6446C36.2516 19.995 37.1741 20.4934 38 21.1132V8.10736C38 5.83893 36.1594 4 33.8889 4H5.11111Z" fill="#004ED9"/>
<path fill-rule="evenodd" clip-rule="evenodd" d="M31.5 37C35.6421 37 39 33.6421 39 29.5C39 25.3579 35.6421 22 31.5 22C27.3579 22 24 25.3579 24 29.5C24 33.6421 27.3579 37 31.5 37ZM34.7721 26.3433C35.2532 25.8851 36.0267 25.8851 36.5078 26.3433C36.9984 26.8105 36.9984 27.5751 36.5078 28.0423L31.1385 33.156C30.6574 33.6142 29.8839 33.6142 29.4027 33.156L27.0164 30.8832C26.5258 30.416 26.5258 29.6514 27.0164 29.1842C27.4975 28.726 28.271 28.726 28.7522 29.1842L30.2706 30.6304L34.7721 26.3433Z" fill="#FFC244"/>
<path d="M10.0486 19C8.91717 19 8 19.8954 8 21C8 22.1046 8.91717 23 10.0486 23H23.7048C25.2115 21.0416 27.4376 19.6409 30 19.1717C29.7459 19.0613 29.4644 19 29.1684 19H10.0486Z" fill="#C3D6F7"/>
</svg>
