<svg width="40" height="40" viewBox="0 0 40 40" fill="none" xmlns="http://www.w3.org/2000/svg">
<g clip-path="url(#clip0)">
<path d="M34.6796 13.4542L32.0906 13.4542L30.1657 6.27064C29.987 5.6036 29.3013 5.20774 28.6343 5.38648L3.27064 12.1827C2.60359 12.3614 2.20773 13.047 2.38647 13.7141L5.1813 24.1445L5.1813 31.7771C4.71386 31.3218 4.35918 30.7387 4.17804 30.0626L-0.029118 14.3613C-0.565321 12.3602 0.622243 10.3033 2.62338 9.76706L27.987 2.97089C29.9882 2.43469 32.0451 3.62225 32.5813 5.62339L34.6796 13.4542Z" fill="#004ED9"/>
<path fill-rule="evenodd" clip-rule="evenodd" d="M6.81528 15.1164C5.80531 16.1335 5.18131 17.5344 5.18131 19.081L5.18131 20.7322L4.32824 20.9608L3.03373 16.1296L6.81528 15.1164L6.81528 15.1164Z" fill="#FFC244"/>
<path fill-rule="evenodd" clip-rule="evenodd" d="M13.0186 13.4542L30.813 8.68621L32.0906 13.4542L13.0186 13.4542Z" fill="#FFC244"/>
<path fill-rule="evenodd" clip-rule="evenodd" d="M35.3333 14H9.66667C7.64162 14 6 15.6966 6 17.7895V34.2106C6 36.3034 7.64162 38 9.66667 38H35.3333C37.3584 38 39 36.3034 39 34.2106V17.7895C39 15.6966 37.3584 14 35.3333 14ZM8.44445 17.7895C8.44445 17.0919 8.99165 16.5263 9.66667 16.5263H35.3333C36.0083 16.5263 36.5556 17.0919 36.5556 17.7895V34.2105C36.5556 34.9082 36.0083 35.4737 35.3333 35.4737H9.66667C8.99165 35.4737 8.44445 34.9082 8.44445 34.2105V17.7895Z" fill="#004ED9"/>
<rect x="11" y="29" width="7" height="3" fill="#C3D6F7"/>
<rect x="19" y="29" width="7" height="3" fill="#C3D6F7"/>
<rect x="28" y="29" width="7" height="3" fill="#C3D6F7"/>
<rect x="11" y="20" width="8" height="5" fill="#FFC244"/>
</g>
<defs>
<clipPath id="clip0">
<rect width="40" height="40" fill="white"/>
</clipPath>
</defs>
</svg>
