<svg width="40" height="40" viewBox="0 0 40 40" fill="none" xmlns="http://www.w3.org/2000/svg">
<path d="M29.8333 5.66667V4.33333C29.8333 3.59695 30.4303 3 31.1667 3C31.903 3 32.5 3.59695 32.5 4.33333V5.66667H36.5C37.9728 5.66667 39.1667 6.86057 39.1667 8.33333V21.6667H36.5V8.33333H4.5V32.3333H22.4801V35H4.5C3.02724 35 1.83334 33.8061 1.83334 32.3333V8.33333C1.83334 6.86057 3.02724 5.66667 4.5 5.66667H8.5V4.33333C8.5 3.59695 9.09696 3 9.83334 3C10.5697 3 11.1667 3.59695 11.1667 4.33333V5.66667H19.1667V4.33333C19.1667 3.59695 19.7636 3 20.5 3C21.2364 3 21.8333 3.59695 21.8333 4.33333V5.66667H29.8333Z" fill="#004ED9"/>
<path d="M8.5 13.7652H32.5C33.2364 13.7652 33.8333 13.1682 33.8333 12.4318C33.8333 11.6955 33.2364 11.0985 32.5 11.0985H8.5C7.76362 11.0985 7.16666 11.6955 7.16666 12.4318C7.16666 13.1682 7.76362 13.7652 8.5 13.7652Z" fill="#004ED9"/>
<rect x="7.16666" y="16.3333" width="5.33333" height="5.33333" fill="#C3D6F7"/>
<rect x="28.5" y="24.3333" width="5.33333" height="5.33333" fill="#C3D6F7"/>
<path fill-rule="evenodd" clip-rule="evenodd" d="M12.5 24.3333V29.6666H7.16666L7.1712 24.3333H12.5Z" fill="#C3D6F7"/>
<path fill-rule="evenodd" clip-rule="evenodd" d="M20.5 24.3333V29.6666H15.1667L15.1712 24.3333H20.5Z" fill="#C3D6F7"/>
<rect x="15.1667" y="16.3333" width="5.33333" height="5.33333" fill="#C3D6F7"/>
<path fill-rule="evenodd" clip-rule="evenodd" d="M25.8333 21.6666V19H28.5V16.3333H23.1667V21.6666H25.8333Z" fill="#C3D6F7"/>
<path fill-rule="evenodd" clip-rule="evenodd" d="M31.5175 32.9696C31.2925 32.8783 31.0408 32.8783 30.8158 32.9696L27.219 34.4286C26.5739 34.6903 25.8796 34.179 25.9382 33.4852L26.2506 29.7825C26.2721 29.5282 26.1885 29.2762 26.0193 29.0852L23.542 26.288C23.0724 25.7577 23.3414 24.9182 24.0317 24.7596L27.7726 23.9C28.0137 23.8446 28.223 23.6958 28.3544 23.4861L30.3759 20.2615C30.7416 19.678 31.5917 19.678 31.9575 20.2615L33.979 23.4861C34.1104 23.6958 34.3196 23.8446 34.5608 23.9L38.3017 24.7596C38.992 24.9182 39.261 25.7577 38.7914 26.288L36.314 29.0852C36.1449 29.2762 36.0613 29.5282 36.0827 29.7825L36.3951 33.4852C36.4537 34.179 35.7595 34.6903 35.1143 34.4286L31.5175 32.9696Z" fill="#FFC244"/>
</svg>
