<?xml version="1.0" encoding="UTF-8"?>
<svg width="29px" height="26px" viewBox="0 0 29 26" version="1.1" xmlns="http://www.w3.org/2000/svg" xmlns:xlink="http://www.w3.org/1999/xlink">
    <!-- Generator: sketchtool 54.1 (76490) - https://sketchapp.com -->
    <title>5C6BE5D2-BF15-4DEB-A087-86D1FD107D0D</title>
    <desc>Created with sketchtool.</desc>
    <g id="Registration-Form-(Online)" stroke="none" stroke-width="1" fill="none" fill-rule="evenodd">
        <g id="Registration-Form-Online-(Desktop-UI)-–-Documents&amp;Forms-–-Payment-Settings-v.0" transform="translate(-36.000000, -533.000000)">
            <g id="General-Information-Copy-6" transform="translate(35.000000, 531.000000)">
                <g id="icon-/-huge-(28x28)-/-documents">
                    <g id="Group-2" transform="translate(-1.000000, -0.000000)">
                        <g id="Group">
                            <g id="Group-3" transform="translate(15.088897, 12.757125) rotate(-15.000000) translate(-15.088897, -12.757125) translate(3.088897, 4.757125)">
                                <path d="M23.955623,8.50349042 L22.1841944,8.02883757 L22.1841944,2.76088967 C22.1841944,2.27172318 21.7876466,1.87517538 21.2984801,1.87517538 L2.69848012,1.87517538 C2.20931363,1.87517538 1.81276584,2.27172318 1.81276584,2.76088967 L1.81276584,10.4098883 L0.413470288,15.6321303 C0.177098447,15.2349544 0.0413372661,14.7709193 0.0413372661,14.2751754 L0.0413372661,2.76088967 C0.0413372661,1.29339019 1.23098065,0.103746812 2.69848012,0.103746812 L21.2984801,0.103746812 C22.7659796,0.103746812 23.955623,1.29339019 23.955623,2.76088967 L23.955623,8.50349042 Z" id="Shape" fill="#A4A8BE" fill-rule="nonzero"></path>
                                <path d="M4.58590321,4.53231824 C3.70839864,5.04307486 3.02462437,5.88717066 2.7410767,6.94538494 L2.43835027,8.07517538 L1.81276584,8.07517538 L1.81276584,4.53231824 L4.58590321,4.53231824 L4.58590321,4.53231824 Z M9.13500662,4.53231824 L22.1841944,4.53231824 L22.1841944,8.02883757 L9.13500662,4.53231824 Z" id="Shape" fill="#DBDCE3"></path>
                            </g>
                            <path d="M8.8582238,10.4776878 L27.4582238,10.4776878 C28.9257233,10.4776878 30.1153667,11.6673312 30.1153667,13.1348307 L30.1153667,24.6491164 C30.1153667,26.1166159 28.9257233,27.3062593 27.4582238,27.3062593 L8.8582238,27.3062593 C7.39072432,27.3062593 6.20108094,26.1166159 6.20108094,24.6491164 L6.20108094,13.1348307 C6.20108094,11.6673312 7.39072432,10.4776878 8.8582238,10.4776878 Z M8.8582238,12.2491164 C8.3690573,12.2491164 7.97250951,12.6456642 7.97250951,13.1348307 L7.97250951,24.6491164 C7.97250951,25.1382829 8.3690573,25.5348307 8.8582238,25.5348307 L27.4582238,25.5348307 C27.9473903,25.5348307 28.3439381,25.1382829 28.3439381,24.6491164 L28.3439381,13.1348307 C28.3439381,12.6456642 27.9473903,12.2491164 27.4582238,12.2491164 L8.8582238,12.2491164 Z" id="Rectangle" fill="#A4A8BE" fill-rule="nonzero"></path>
                        </g>
                        <rect id="Rectangle" fill="#CACBD7" x="9.74285714" y="21.5491164" width="4.42857143" height="1.77142857"></rect>
                        <rect id="Rectangle-Copy" fill="#CACBD7" x="15.9428571" y="21.5491164" width="4.42857143" height="1.77142857"></rect>
                        <rect id="Rectangle-Copy-2" fill="#CACBD7" x="22.1428571" y="21.5491164" width="4.42857143" height="1.77142857"></rect>
                        <rect id="Rectangle" fill="#DBDCE3" x="9.74285714" y="14.4634021" width="6.2" height="4.42857143"></rect>
                    </g>
                </g>
            </g>
        </g>
    </g>
</svg>
