<?xml version="1.0" encoding="UTF-8"?>
<svg width="28px" height="24px" viewBox="0 0 28 24" version="1.1" xmlns="http://www.w3.org/2000/svg" xmlns:xlink="http://www.w3.org/1999/xlink">
    <!-- Generator: sketchtool 54.1 (76490) - https://sketchapp.com -->
    <title>E77FD221-5762-46CF-9A66-9648A1DEB06F</title>
    <desc>Created with sketchtool.</desc>
    <g id="Registration-Form-(Online)" stroke="none" stroke-width="1" fill="none" fill-rule="evenodd">
        <g id="Registration-Form-Online-(Desktop-UI)-–-Tuition-Contract-(Split-by-Student)" transform="translate(-36.000000, -411.000000)">
            <g id="General-Information-Copy-3" transform="translate(35.000000, 408.000000)">
                <g id="icon-/-huge-(28x28)-/-documents">
                    <path d="M22,5 L22,4 C22,3.44771525 22.4477153,3 23,3 C23.5522847,3 24,3.44771525 24,4 L24,5 L27,5 C28.1045695,5 29,5.8954305 29,7 L29,17 L27,17 L27,7 L3,7 L3,25 L16.4850593,25 L16.4850593,27 L3,27 C1.8954305,27 1,26.1045695 1,25 L1,7 C1,5.8954305 1.8954305,5 3,5 L6,5 L6,4 C6,3.44771525 6.44771525,3 7,3 C7.55228475,3 8,3.44771525 8,4 L8,5 L14,5 L14,4 C14,3.44771525 14.4477153,3 15,3 C15.5522847,3 16,3.44771525 16,4 L16,5 L22,5 Z" id="Path" fill="#A4A8BE" fill-rule="nonzero"></path>
                    <path d="M6,11.07387 L24,11.07387 C24.5522847,11.07387 25,10.6261548 25,10.07387 C25,9.52158529 24.5522847,9.07387004 24,9.07387004 L6,9.07387004 C5.44771525,9.07387004 5,9.52158529 5,10.07387 C5,10.6261548 5.44771525,11.07387 6,11.07387 Z" id="Path-12" fill="#A4A8BE" fill-rule="nonzero"></path>
                    <rect id="Rectangle" fill="#CACBD7" x="5" y="13" width="4" height="4"></rect>
                    <rect id="Rectangle-Copy-2" fill="#C3D6F7" x="21" y="19" width="4" height="4"></rect>
                    <polygon id="Path" fill="#CACBD7" points="9 19 9 23 5 23 5.00340333 19"></polygon>
                    <polygon id="Path-Copy" fill="#CACBD7" points="15 19 15 23 11 23 11.0034033 19"></polygon>
                    <rect id="Rectangle-Copy" fill="#CACBD7" x="11" y="13" width="4" height="4"></rect>
                    <polygon id="Path" fill="#CACBD7" transform="translate(19.000000, 15.000000) scale(-1, 1) translate(-19.000000, -15.000000) " points="19 17 19 15 17 15 17 13 21 13 21 17"></polygon>
                    <path d="M22.7368754,25.4771859 L20.039285,26.5714382 C19.6810376,26.7167579 19.2728158,26.5441459 19.1274961,26.1858985 C19.0861235,26.0839055 19.0693849,25.9735937 19.078639,25.8639186 L19.3129615,23.0868532 C19.3290529,22.896147 19.2663597,22.7071685 19.1394716,22.5638954 L17.2814759,20.465979 C17.0251592,20.1765645 17.0519903,19.7341619 17.3414048,19.4778452 C17.4290206,19.4002492 17.5346939,19.34586 17.6487588,19.3196523 L20.4544298,18.675019 C20.6352728,18.6334683 20.7922194,18.5218153 20.8907766,18.3645985 L22.4069048,15.9460958 C22.6122463,15.6185383 23.0442463,15.5194628 23.3718038,15.7248043 C23.4613227,15.7809225 23.536977,15.8565769 23.5930952,15.9460958 L25.1092234,18.3645985 C25.2077806,18.5218153 25.3647272,18.6334683 25.5455702,18.675019 L28.3512412,19.3196523 C28.7280232,19.4062221 28.9632867,19.7818429 28.876717,20.158625 C28.8505093,20.2726899 28.7961201,20.3783632 28.7185241,20.465979 L26.8605284,22.5638954 C26.7336403,22.7071685 26.6709471,22.896147 26.6870385,23.0868532 L26.921361,25.8639186 C26.9538658,26.249149 26.6679253,26.5877904 26.2826949,26.6202952 C26.1730198,26.6295494 26.062708,26.6128108 25.960715,26.5714382 L23.2631246,25.4771859 C23.0943853,25.4087384 22.9056147,25.4087384 22.7368754,25.4771859 Z" id="Star" fill="#DBDCE3"></path>
                </g>
            </g>
        </g>
    </g>
</svg>
