<svg width="30" height="30" viewBox="0 0 30 30" fill="none" xmlns="http://www.w3.org/2000/svg">
<path d="M22 5V4C22 3.44772 22.4477 3 23 3C23.5523 3 24 3.44772 24 4V5H27C28.1046 5 29 5.89543 29 7V17H27V7H3V25H16.4851V27H3C1.89543 27 1 26.1046 1 25V7C1 5.89543 1.89543 5 3 5H6V4C6 3.44772 6.44772 3 7 3C7.55228 3 8 3.44772 8 4V5H14V4C14 3.44772 14.4477 3 15 3C15.5523 3 16 3.44772 16 4V5H22Z" fill="#A4A8BE"/>
<path d="M6 11.0739H24C24.5523 11.0739 25 10.6262 25 10.0739C25 9.52158 24.5523 9.07387 24 9.07387H6C5.44772 9.07387 5 9.52158 5 10.0739C5 10.6262 5.44772 11.0739 6 11.0739Z" fill="#A4A8BE"/>
<rect x="5" y="13" width="4" height="4" fill="#CACBD7"/>
<rect x="21" y="19" width="4" height="4" fill="#C3D6F7"/>
<path fill-rule="evenodd" clip-rule="evenodd" d="M9 19V23H5L5.0034 19H9Z" fill="#CACBD7"/>
<path fill-rule="evenodd" clip-rule="evenodd" d="M15 19V23H11L11.0034 19H15Z" fill="#CACBD7"/>
<rect x="11" y="13" width="4" height="4" fill="#CACBD7"/>
<path fill-rule="evenodd" clip-rule="evenodd" d="M19 17V15H21V13H17V17H19Z" fill="#CACBD7"/>
<path fill-rule="evenodd" clip-rule="evenodd" d="M23.2631 25.4772C23.0944 25.4087 22.9056 25.4087 22.7369 25.4772L20.0393 26.5714C19.5554 26.7677 19.0347 26.3842 19.0786 25.8639L19.313 23.0869C19.3291 22.8962 19.2664 22.7072 19.1395 22.5639L17.2815 20.466C16.9293 20.0683 17.131 19.4386 17.6488 19.3197L20.4544 18.675C20.6353 18.6335 20.7922 18.5218 20.8908 18.3646L22.4069 15.9461C22.6812 15.5085 23.3188 15.5085 23.5931 15.9461L25.1092 18.3646C25.2078 18.5218 25.3647 18.6335 25.5456 18.675L28.3512 19.3197C28.869 19.4386 29.0707 20.0683 28.7185 20.466L26.8605 22.5639C26.7336 22.7072 26.6709 22.8962 26.687 23.0869L26.9214 25.8639C26.9653 26.3842 26.4446 26.7677 25.9607 26.5714L23.2631 25.4772Z" fill="#DBDCE3"/>
</svg>
