<svg width="30" height="30" viewBox="0 0 30 30" fill="none" xmlns="http://www.w3.org/2000/svg">
<path d="M25.7673 10.1492L23.9334 10.1492L22.57 5.06074C22.4434 4.58824 21.9577 4.30784 21.4852 4.43444L3.51898 9.24848C3.04648 9.37508 2.76608 9.86075 2.89268 10.3333L4.87239 17.7216L4.87239 23.1281C4.54128 22.8056 4.29004 22.3925 4.16173 21.9137L1.18162 10.7917C0.801799 9.37424 1.643 7.91723 3.0605 7.53741L21.0267 2.72337C22.4442 2.34356 23.9012 3.18476 24.281 4.60226L25.7673 10.1492Z" fill="#004ED9"/>
<path fill-rule="evenodd" clip-rule="evenodd" d="M6.02981 11.3266C5.3144 12.047 4.87239 13.0393 4.87239 14.1349L4.87239 15.3045L4.26812 15.4664L3.35116 12.0443L6.02981 11.3266L6.02981 11.3266Z" fill="#FFC244"/>
<path fill-rule="evenodd" clip-rule="evenodd" d="M10.4239 10.1492L23.0285 6.77179L23.9334 10.1492L10.4239 10.1492Z" fill="#FFC244"/>
<path fill-rule="evenodd" clip-rule="evenodd" d="M26.4581 10.4778H7.8581C6.39061 10.4778 5.20096 11.6674 5.20096 13.1349V24.6492C5.20096 26.1167 6.39061 27.3063 7.8581 27.3063H26.4581C27.9256 27.3063 29.1152 26.1167 29.1152 24.6492V13.1349C29.1152 11.6674 27.9256 10.4778 26.4581 10.4778ZM6.97239 13.1349C6.97239 12.6457 7.36894 12.2492 7.85811 12.2492H26.4581C26.9473 12.2492 27.3438 12.6457 27.3438 13.1349V24.6492C27.3438 25.1383 26.9473 25.5349 26.4581 25.5349H7.85811C7.36894 25.5349 6.97239 25.1383 6.97239 24.6492V13.1349Z" fill="#004ED9"/>
<rect x="8.74274" y="21.5492" width="4.42857" height="1.77143" fill="#C3D6F7"/>
<rect x="14.9427" y="21.5492" width="4.42857" height="1.77143" fill="#C3D6F7"/>
<rect x="21.1427" y="21.5492" width="4.42857" height="1.77143" fill="#C3D6F7"/>
<rect x="8.74274" y="14.4635" width="6.2" height="4.42857" fill="#FFC244"/>
</svg>
