<svg width="23" height="24" viewBox="0 0 23 24" fill="none" xmlns="http://www.w3.org/2000/svg">
<path d="M15.6486 10.3645L16.8362 9.16429C17.5942 10.1447 18.0658 11.2773 18.209 12.4522H16.5077C16.3898 11.7169 16.095 10.9984 15.6486 10.3645ZM16.5077 14.1426H18.209C18.0658 15.3175 17.6026 16.4501 16.8446 17.4305L15.657 16.2303C16.095 15.5964 16.3898 14.8864 16.5077 14.1426ZM15.657 18.6392C14.6801 19.3999 13.543 19.8563 12.3724 20V18.2842C13.1051 18.1574 13.8126 17.87 14.4442 17.4136L15.657 18.6392ZM10.6879 6.59482V4L14.52 7.84575L10.6879 11.607V8.30217C8.29598 8.70787 6.47677 10.7871 6.47677 13.2974C6.47677 15.8077 8.29598 17.887 10.6879 18.2927V20C7.36111 19.5858 4.79232 16.7459 4.79232 13.2974C4.79232 9.84892 7.36111 7.00898 10.6879 6.59482Z" fill="#A4A4A4"/>
</svg>
