<svg width="23" height="24" viewBox="0 0 23 24" fill="none" xmlns="http://www.w3.org/2000/svg">
<path d="M7.35138 10.3645L6.16384 9.16429C5.40584 10.1447 4.93419 11.2773 4.79102 12.4522H6.49231C6.61022 11.7169 6.905 10.9984 7.35138 10.3645ZM6.49231 14.1426H4.79102C4.93419 15.3175 5.39742 16.4501 6.15542 17.4305L7.34296 16.2303C6.905 15.5964 6.61022 14.8864 6.49231 14.1426ZM7.34296 18.6392C8.31994 19.3999 9.45695 19.8563 10.6276 20V18.2842C9.89491 18.1574 9.18744 17.87 8.55577 17.4136L7.34296 18.6392ZM12.3121 6.59482V4L8.47997 7.84575L12.3121 11.607V8.30217C14.704 8.70787 16.5232 10.7871 16.5232 13.2974C16.5232 15.8077 14.704 17.887 12.3121 18.2927V20C15.6389 19.5858 18.2077 16.7459 18.2077 13.2974C18.2077 9.84892 15.6389 7.00898 12.3121 6.59482Z" fill="#A4A4A4"/>
</svg>
