<svg width="24" height="24" viewBox="0 0 24 24" fill="none" 
  xmlns="http://www.w3.org/2000/svg">
  <path d="M15.0763 13.0472H14.5343L14.3422 12.8619C15.0146 12.0798 15.4194 11.0643 15.4194 9.95969C15.4194 7.49657 13.4228 5.5 10.9597 5.5C8.49657 5.5 6.5 7.49657 6.5 9.95969C6.5 12.4228 8.49657 14.4194 10.9597 14.4194C12.0643 14.4194 13.0798 14.0146 13.8619 13.3422L14.0472 13.5343V14.0763L17.4777 17.5L18.5 16.4777L15.0763 13.0472ZM10.9597 13.0472C9.25129 13.0472 7.87221 11.6681 7.87221 9.95969C7.87221 8.25129 9.25129 6.87221 10.9597 6.87221C12.6681 6.87221 14.0472 8.25129 14.0472 9.95969C14.0472 11.6681 12.6681 13.0472 10.9597 13.0472Z" fill="#A4A4A4"/>
</svg>
