<svg width="24" height="24" viewBox="-128 -128 640 640" 
  xmlns="http://www.w3.org/2000/svg">
  <path stroke-width="0" id="svg_1" d="m497,273.021271l-168,168c-15,15 -41,4.5 -41,-17l0,-96l-136,0c-13.3,0 -24,-10.7 -24,-24l0,-96c0,-13.3 10.7,-24 24,-24l136,0l0,-96c0,-21.4 25.9,-32 41,-17l168,168c9.3,9.4 9.3,24.6 0,34zm-305,163l0,-40c0,-6.6 -5.4,-12 -12,-12l-84,0c-17.7,0 -32,-14.3 -32,-32l0,-192c0,-17.7 14.3,-32 32,-32l84,0c6.6,0 12,-5.4 12,-12l0,-40c0,-6.6 -5.4,-12 -12,-12l-84,0c-53,0 -96,43 -96,96l0,192c0,53 43,96 96,96l84,0c6.6,0 12,-5.4 12,-12z" fill="#4350a2"/>
</svg>