<svg width="12" height="14" viewBox="0 0 12 14" fill="none" xmlns="http://www.w3.org/2000/svg">
<path d="M4.66667 11.0007L2 8.33398L2.94 7.39398L4.66667 9.11399L9.06 4.72065L10 5.66732L4.66667 11.0007ZM6 1.66732C6.36667 1.66732 6.66667 1.96732 6.66667 2.33398C6.66667 2.70065 6.36667 3.00065 6 3.00065C5.63333 3.00065 5.33333 2.70065 5.33333 2.33398C5.33333 1.96732 5.63333 1.66732 6 1.66732ZM10.6667 1.66732H7.88C7.6 0.893984 6.86667 0.333984 6 0.333984C5.13333 0.333984 4.4 0.893984 4.12 1.66732H1.33333C0.6 1.66732 0 2.26732 0 3.00065V12.334C0 13.0673 0.6 13.6673 1.33333 13.6673H10.6667C11.4 13.6673 12 13.0673 12 12.334V3.00065C12 2.26732 11.4 1.66732 10.6667 1.66732Z" fill="white"/>
</svg>
