<svg width="30" height="30" viewBox="0 0 30 30" fill="none" xmlns="http://www.w3.org/2000/svg">
<path d="M24 15H22V6.87497C22 6.32268 21.5523 5.87497 21 5.87497H7.83333C7.28105 5.87497 6.83333 6.32268 6.83333 6.87497V24.8333C6.83333 25.3856 7.28105 25.8333 7.83333 25.8333H16.0357V27.8333H7.83333C6.17648 27.8333 4.83333 26.4902 4.83333 24.8333V6.87497C4.83333 5.21812 6.17648 3.87497 7.83333 3.87497H21C22.6569 3.87497 24 5.21812 24 6.87497V15Z" fill="#A4A8BE"/>
<mask id="path-2-inside-1" fill="white">
<path fill-rule="evenodd" clip-rule="evenodd" d="M3.48722 24.6488C3.48722 25.1781 3.05816 25.6071 2.52889 25.6071C1.99962 25.6071 1.57056 25.1781 1.57056 24.6488V4.8333C1.57056 2.71621 3.2868 0.773926 5.40389 0.773926H19.5851C20.1143 0.773926 20.5434 1.20299 20.5434 1.73226C20.5434 2.26153 20.1143 2.69059 19.5851 2.69059H5.40389C4.34534 2.69059 3.48722 3.77476 3.48722 4.8333V24.6488Z"/>
</mask>
<path d="M1.48722 24.6488C1.48722 24.0735 1.95359 23.6071 2.52889 23.6071V27.6071C4.16273 27.6071 5.48722 26.2827 5.48722 24.6488H1.48722ZM2.52889 23.6071C3.10419 23.6071 3.57056 24.0735 3.57056 24.6488H-0.429443C-0.429443 26.2827 0.895046 27.6071 2.52889 27.6071V23.6071ZM3.57056 24.6488V4.8333H-0.429443V24.6488H3.57056ZM3.57056 4.8333C3.57056 3.67041 4.53597 2.77393 5.40389 2.77393V-1.22607C2.03763 -1.22607 -0.429443 1.76201 -0.429443 4.8333H3.57056ZM5.40389 2.77393H19.5851V-1.22607H5.40389V2.77393ZM19.5851 2.77393C19.0098 2.77393 18.5434 2.30755 18.5434 1.73226H22.5434C22.5434 0.0984201 21.2189 -1.22607 19.5851 -1.22607V2.77393ZM18.5434 1.73226C18.5434 1.15697 19.0098 0.690592 19.5851 0.690592V4.69059C21.2189 4.69059 22.5434 3.3661 22.5434 1.73226H18.5434ZM19.5851 0.690592H5.40389V4.69059H19.5851V0.690592ZM5.40389 0.690592C4.16481 0.690592 3.16745 1.32221 2.53216 2.061C1.90035 2.79575 1.48722 3.78562 1.48722 4.8333H5.48722C5.48722 4.83649 5.48726 4.81452 5.50293 4.77406C5.51858 4.73362 5.54174 4.69609 5.56505 4.66898C5.58861 4.64158 5.59661 4.6427 5.57407 4.65432C5.54737 4.66808 5.4874 4.69059 5.40389 4.69059V0.690592ZM1.48722 4.8333V24.6488H5.48722V4.8333H1.48722Z" fill="#A4A8BE" mask="url(#path-2-inside-1)"/>
<path d="M9.625 10.5833H19.0422C19.5714 10.5833 20.0005 10.1542 20.0005 9.62497C20.0005 9.0957 19.5714 8.66664 19.0422 8.66664H9.625C9.09572 8.66664 8.66666 9.0957 8.66666 9.62497C8.66666 10.1542 9.09572 10.5833 9.625 10.5833Z" fill="#CACBD7"/>
<path d="M9.625 16.3333H19.2916C19.8209 16.3333 20.25 15.9042 20.25 15.375C20.25 14.8457 19.8209 14.4166 19.2916 14.4166L9.625 14.4166C9.09572 14.4166 8.66666 14.8457 8.66666 15.375C8.66666 15.9042 9.09572 16.3333 9.625 16.3333Z" fill="#CACBD7"/>
<path d="M9.625 22.0833H15.0034V20.1666H9.625C9.09572 20.1666 8.66666 20.5957 8.66666 21.125C8.66666 21.6542 9.09572 22.0833 9.625 22.0833Z" fill="#CACBD7"/>
<path fill-rule="evenodd" clip-rule="evenodd" d="M27.9348 20.8979C26.1203 26.8206 24.3059 29.7819 22.4914 29.7819C20.6828 29.7819 18.8742 26.8397 17.0656 20.9555C16.85 20.2538 17.1803 19.5 17.8423 19.183C19.5389 18.3705 21.1528 17.9642 22.6839 17.9642C24.1953 17.9642 25.7033 18.3601 27.2078 19.1519C27.8382 19.4837 28.1434 20.2169 27.9348 20.8979Z" fill="#DBDCE3"/>
</svg>
