<?xml version="1.0" encoding="UTF-8"?>
<svg width="27px" height="30px" viewBox="0 0 27 30" version="1.1" xmlns="http://www.w3.org/2000/svg" xmlns:xlink="http://www.w3.org/1999/xlink">
    <!-- Generator: sketchtool 54.1 (76490) - https://sketchapp.com -->
    <title>53433BD8-43FD-4D2E-AA92-A79CC62655DB</title>
    <desc>Created with sketchtool.</desc>
    <g id="Registration-Form-(Online)" stroke="none" stroke-width="1" fill="none" fill-rule="evenodd">
        <g id="Registration-Form-Online-(Desktop-UI)-–-Tuition-Contract-(Split-by-Fee)" transform="translate(-37.000000, -471.000000)">
            <g id="General-Information-Copy-5" transform="translate(35.000000, 471.000000)">
                <g id="icon-/-huge-(28x28)-/-documents-copy">
                    <g id="Group-2" transform="translate(2.000000, 0.000000)">
                        <g id="Group">
                            <path d="M23,15 L21,15 L21,6.875 C21,6.32271525 20.5522847,5.875 20,5.875 L6.83333333,5.875 C6.28104858,5.875 5.83333333,6.32271525 5.83333333,6.875 L5.83333333,24.8333333 C5.83333333,25.3856181 6.28104858,25.8333333 6.83333333,25.8333333 L15.0357143,25.8333333 L15.0357143,27.8333333 L6.83333333,27.8333333 C5.17647908,27.8333333 3.83333333,26.4901876 3.83333333,24.8333333 L3.83333333,6.875 C3.83333333,5.21814575 5.17647908,3.875 6.83333333,3.875 L20,3.875 C21.6568542,3.875 23,5.21814575 23,6.875 L23,15 Z" id="Path" fill="#A4A8BE" fill-rule="nonzero"></path>
                            <path d="M1.48722537,24.648844 C1.48722537,24.6258321 1.50588018,24.6071773 1.52889204,24.6071773 C1.55190391,24.6071773 1.57055871,24.6258321 1.57055871,24.648844 L1.57055871,4.83333333 C1.57055871,3.20867673 2.8972052,1.77395778 4.40389204,1.77395778 L18.5850729,1.77395778 C18.562061,1.77395778 18.5434062,1.75530298 18.5434062,1.73229111 C18.5434062,1.70927925 18.562061,1.69062444 18.5850729,1.69062444 L4.40389204,1.69062444 C2.79380682,1.69062444 1.48722537,3.2100817 1.48722537,4.83333333 L1.48722537,24.648844 Z" id="Path" stroke="#A4A8BE" stroke-width="2"></path>
                            <path d="M8.625,10.5833333 L18.0421583,10.5833333 C18.5714312,10.5833333 19.0004916,10.1542729 19.0004916,9.625 C19.0004916,9.09572711 18.5714312,8.66666667 18.0421583,8.66666667 L8.625,8.66666667 C8.09572711,8.66666667 7.66666667,9.09572711 7.66666667,9.625 C7.66666667,10.1542729 8.09572711,10.5833333 8.625,10.5833333 Z" id="Path-14" fill="#CACBD7" fill-rule="nonzero"></path>
                            <path d="M8.625,16.3333333 L18.2916346,16.3333333 C18.8209075,16.3333333 19.249968,15.9042729 19.249968,15.375 L19.249968,15.375 C19.249968,14.8457271 18.8209075,14.4166667 18.2916346,14.4166667 L8.625,14.4166667 C8.09572711,14.4166667 7.66666667,14.8457271 7.66666667,15.375 C7.66666667,15.9042729 8.09572711,16.3333333 8.625,16.3333333 Z" id="Path-14" fill="#CACBD7" fill-rule="nonzero"></path>
                            <path d="M8.625,22.0833333 L14.0034033,22.0833333 L14.0034033,20.1666667 L8.625,20.1666667 C8.09572711,20.1666667 7.66666667,20.5957271 7.66666667,21.125 C7.66666667,21.6542729 8.09572711,22.0833333 8.625,22.0833333 Z" id="Path-14" fill="#CACBD7" fill-rule="nonzero"></path>
                        </g>
                        <path d="M26.9347896,20.8979683 C25.1203227,26.8205986 23.3058558,29.7819137 21.4913889,29.7819137 C19.6828059,29.7819137 17.8742229,26.8397731 16.0656399,20.9554918 C15.8499906,20.2538663 16.1802949,19.5000736 16.8423137,19.1830342 C18.5389151,18.3705352 20.1527695,17.9642857 21.683877,17.9642857 C23.1953476,17.9642857 24.703332,18.3601814 26.2078302,19.1519729 C26.8381736,19.4837186 27.1434424,20.2169015 26.9347896,20.8979683 Z" id="Star" fill="#DBDCE3"></path>
                    </g>
                </g>
            </g>
        </g>
    </g>
</svg>
