<svg width="40" height="40" viewBox="0 0 40 40" fill="none" xmlns="http://www.w3.org/2000/svg">
<path d="M32 20.3948H29.3913V9.88174C29.3913 9.16713 28.8073 8.58783 28.087 8.58783H10.913C10.1927 8.58783 9.6087 9.16713 9.6087 9.88174V33.1183C9.6087 33.8329 10.1927 34.4122 10.913 34.4122H21.6118V37H10.913C8.75193 37 7 35.2621 7 33.1183V9.88174C7 7.73791 8.75193 6 10.913 6H28.087C30.2481 6 32 7.73791 32 9.88174V20.3948Z" fill="#004ED9"/>
<path fill-rule="evenodd" clip-rule="evenodd" d="M12 13.5C12 12.6716 12.6716 12 13.5 12H25.5C26.3284 12 27 12.6716 27 13.5C27 14.3284 26.3284 15 25.5 15H13.5C12.6716 15 12 14.3284 12 13.5Z" fill="#C3D6F7"/>
<path fill-rule="evenodd" clip-rule="evenodd" d="M12 20.5C12 19.6716 12.6716 19 13.5 19H25.5C26.3284 19 27 19.6716 27 20.5C27 21.3284 26.3284 22 25.5 22H13.5C12.6716 22 12 21.3284 12 20.5Z" fill="#C3D6F7"/>
<path fill-rule="evenodd" clip-rule="evenodd" d="M12 27.5C12 26.6716 12.6716 26 13.5 26H19V29H13.5C12.6716 29 12 28.3284 12 27.5Z" fill="#C3D6F7"/>
<path d="M4.52554 32.7651C4.52554 32.8739 4.42904 33 4.26277 33C4.09649 33 4 32.8739 4 32.7651V7.2309C4 5.0016 5.86576 3 8.05108 3H26.7372C26.9035 3 27 3.12609 27 3.23491C27 3.34372 26.9035 3.46981 26.7372 3.46981H8.05108C7.00746 3.46981 6.11862 3.99121 5.51428 4.67851C4.91247 5.36293 4.52554 6.28302 4.52554 7.2309V32.7651Z" stroke="#004ED9" stroke-width="2"/>
<path fill-rule="evenodd" clip-rule="evenodd" d="M36.917 27.7237C34.6077 35.2412 32.2984 39 29.989 39C27.6872 39 25.3854 35.2656 23.0835 27.7967C22.8091 26.9061 23.2295 25.9494 24.072 25.5469C26.2313 24.5156 28.2853 24 30.234 24C32.1577 24 34.077 24.5025 35.9918 25.5075C36.794 25.9286 37.1826 26.8592 36.917 27.7237Z" fill="#FFC244"/>
</svg>
