<svg width="40" height="40" viewBox="0 0 40 40" fill="none" xmlns="http://www.w3.org/2000/svg">
<path d="M35 18.2168L34.9973 6.72675C34.9973 3.57347 32.4762 1.01679 29.3653 1.01526L9.63747 1C6.52276 0.999999 4 3.55712 4 6.71148L4.00274 32.2885C4.00274 35.4429 6.52549 38 9.63747 38H19.9627V35.1443H9.63747C8.08148 35.1443 6.8201 33.8657 6.8201 32.2885L6.81737 6.71118C6.81737 5.1343 8.07875 3.85574 9.63474 3.85574L29.3631 3.871C30.9193 3.87177 32.1799 5.15011 32.1799 6.72675L32.1826 18.2175L35 18.2168Z" fill="#004ED9"/>
<path fill-rule="evenodd" clip-rule="evenodd" d="M11 11.5C11 10.6716 11.6716 10 12.5 10H27.5C28.3284 10 29 10.6716 29 11.5C29 12.3284 28.3284 13 27.5 13H12.5C11.6716 13 11 12.3284 11 11.5Z" fill="#C3D6F7"/>
<path fill-rule="evenodd" clip-rule="evenodd" d="M32.8189 21.0183C33.1029 20.6799 33.6075 20.6357 33.946 20.9197L36.9987 23.4813C37.3372 23.7653 37.3813 24.2699 37.0973 24.6084L28.0408 35.4015C28.0298 35.4146 28.0156 35.4247 27.9995 35.4308L23.0527 37.2966C22.9071 37.3515 22.7573 37.2264 22.7854 37.0734L23.7408 31.8575C23.744 31.8405 23.7515 31.8245 23.7626 31.8112L32.8189 21.0183Z" fill="#FFC244"/>
<path fill-rule="evenodd" clip-rule="evenodd" d="M11 19.5C11 18.6716 11.6716 18 12.5 18H27.5C28.3284 18 29 18.6716 29 19.5C29 20.3284 28.3284 21 27.5 21H12.5C11.6716 21 11 20.3284 11 19.5Z" fill="#C3D6F7"/>
<path fill-rule="evenodd" clip-rule="evenodd" d="M11 27.5C11 26.6716 11.6716 26 12.5 26H20.5C21.3284 26 22 26.6716 22 27.5C22 28.3284 21.3284 29 20.5 29H12.5C11.6716 29 11 28.3284 11 27.5Z" fill="#C3D6F7"/>
</svg>
