<svg width="30" height="30" viewBox="0 0 30 30" fill="none" xmlns="http://www.w3.org/2000/svg">
<g clip-path="url(#clip0)">
<path d="M25.7925 13.9189L25.7904 5.29717C25.7904 2.93105 23.8729 1.0126 21.5068 1.01145L6.50209 1C4.13307 0.999999 2.21429 2.91878 2.21429 5.28571L2.21638 24.4779C2.21638 26.8448 4.13516 28.7636 6.50209 28.7636H14.3553V26.6207H6.50209C5.31862 26.6207 4.35923 25.6614 4.35923 24.4779L4.35715 5.28548C4.35715 4.10225 5.31654 3.14286 6.50001 3.14286L21.5052 3.15431C22.6888 3.15488 23.6476 4.11411 23.6476 5.29717L23.6497 13.9195L25.7925 13.9189Z" fill="#A4A8BE"/>
<path fill-rule="evenodd" clip-rule="evenodd" d="M7.64495 8.40647C7.64495 7.81473 8.12464 7.33504 8.71638 7.33504H19.2878C19.8795 7.33504 20.3592 7.81473 20.3592 8.40647C20.3592 8.9982 19.8795 9.47789 19.2878 9.47789H8.71637C8.12464 9.47789 7.64495 8.9982 7.64495 8.40647Z" fill="#CACBD7"/>
<path fill-rule="evenodd" clip-rule="evenodd" d="M24.2089 16.6128C24.4929 16.2744 24.9975 16.2302 25.3359 16.5142L27.3933 18.2406C27.7318 18.5246 27.7759 19.0292 27.4919 19.3676L20.666 27.5025C20.6549 27.5156 20.6407 27.5257 20.6246 27.5318L16.9114 28.9323C16.7658 28.9872 16.616 28.8622 16.6441 28.7091L17.3613 24.7937C17.3644 24.7767 17.3719 24.7608 17.3831 24.7475L24.2089 16.6128Z" fill="#DBDCE3"/>
<path fill-rule="evenodd" clip-rule="evenodd" d="M7.64495 14.835C7.64495 14.2433 8.12464 13.7636 8.71638 13.7636H19.2878C19.8795 13.7636 20.3592 14.2433 20.3592 14.835C20.3592 15.4268 19.8795 15.9065 19.2878 15.9065H8.71637C8.12464 15.9065 7.64495 15.4268 7.64495 14.835Z" fill="#CACBD7"/>
<path fill-rule="evenodd" clip-rule="evenodd" d="M7.64495 21.2636C7.64495 20.6719 8.12464 20.1922 8.71638 20.1922H15.0021C15.5938 20.1922 16.0735 20.6719 16.0735 21.2636C16.0735 21.8553 15.5938 22.335 15.0021 22.335H8.71638C8.12464 22.335 7.64495 21.8553 7.64495 21.2636Z" fill="#CACBD7"/>
</g>
<defs>
<clipPath id="clip0">
<rect width="30" height="30" fill="white"/>
</clipPath>
</defs>
</svg>
