<svg width="24" height="24" viewBox="0 0 24 24" fill="none" xmlns="http://www.w3.org/2000/svg">
  <mask id="mask0" mask-type="alpha" maskUnits="userSpaceOnUse" x="5" y="3" width="14" height="18">
    <path fill-rule="evenodd" clip-rule="evenodd" d="M19 18.9506V5.04937C19 3.91771 18.1007 3 16.9923 3H7.00734C5.89849 3 5 3.91771 5 5.04937V18.9506C5 20.0823 5.89849 21 7.00734 21H16.9927C18.1019 21 19 20.0823 19 18.9506ZM8.30132 7.15613H7.67383V6.03184H8.28567C8.68191 6.03184 8.92922 6.22612 8.92922 6.58845V6.5987C8.92922 6.9143 8.69677 7.15613 8.30132 7.15613ZM12.8107 7.15039V7.14014C12.8107 6.48844 12.3739 6.03184 11.7255 6.03184H11.1133V8.24844H11.7255C12.3739 8.24844 12.8107 7.80209 12.8107 7.15039ZM10.3203 8.57421C10.3203 8.80005 10.4958 8.97875 10.7166 8.97875H11.725C12.8568 8.97875 13.6397 8.17499 13.6397 7.14006V7.12981C13.6397 6.09488 12.858 5.30178 11.725 5.30178H10.7166C10.4954 5.30178 10.3203 5.48048 10.3203 5.70632V8.57421ZM7.27751 9.0099C7.0563 9.0099 6.88126 8.83161 6.88126 8.60536L6.88086 5.70632C6.88086 5.48048 7.0555 5.30178 7.27711 5.30178H8.35224C9.21178 5.30178 9.73128 5.82191 9.73128 6.5728V6.58386C9.73128 7.43476 9.08331 7.87578 8.27556 7.87578H7.67336V8.60536C7.67336 8.8312 7.49872 9.0099 7.27751 9.0099ZM17.1183 17.8788C17.1183 17.4263 16.7586 17.0591 16.3154 17.0591H7.6838C7.24057 17.0591 6.88086 17.4263 6.88086 17.8788C6.88086 18.3313 7.24057 18.6986 7.6838 18.6986H16.3154C16.7586 18.6986 17.1183 18.3313 17.1183 17.8788ZM16.3154 13.985C16.7586 13.985 17.1183 14.3522 17.1183 14.8047C17.1183 15.2572 16.7586 15.6245 16.3154 15.6245H7.6838C7.24057 15.6245 6.88086 15.2572 6.88086 14.8047C6.88086 14.3522 7.24057 13.985 7.6838 13.985H16.3154ZM14.2322 11.635C14.2322 11.1825 13.7119 10.9109 13.2686 10.9109H7.82202C7.3788 10.9109 6.91992 11.1825 6.91992 11.635C6.91992 12.0875 7.3788 12.4753 7.82202 12.4753H13.2686C13.7119 12.4753 14.2322 12.0875 14.2322 11.635ZM16.7601 5.30178C16.9608 5.30178 17.1198 5.4645 17.1198 5.66944C17.1198 5.87437 16.9604 6.03668 16.7597 6.03709H15.139V6.81995H16.528C16.7288 6.81995 16.8881 6.98267 16.8881 7.18761C16.8881 7.39254 16.7288 7.55526 16.528 7.55526H15.139V8.60536C15.139 8.8312 14.9643 9.0099 14.7431 9.0099C14.5227 9.0099 14.3477 8.83161 14.3477 8.60536V5.70632C14.3477 5.48048 14.5215 5.30178 14.7431 5.30178H16.7601Z" fill="white"/>
  </mask>
  <g mask="url(#mask0)">
    <rect width="24" height="24" fill="white"/>
  </g>
</svg>
