<?xml version="1.0" encoding="UTF-8"?>

<svg version="1.1" viewBox="0 0 46 43" 
  xmlns="http://www.w3.org/2000/svg" 
  xmlns:xlink="http://www.w3.org/1999/xlink">
  <defs>
    <path id="a" d="m8.6129 5.4253c0-1.3364 1.1355-2.4178 2.5387-2.4178h4.8466c1.0201 0 1.8463 0.78689 1.8463 1.7584 0 0.97153-0.82624 1.7584-1.8463 1.7584h-3.9235c-0.63699 0-1.154-0.49236-1.154-1.099s0.51698-1.099 1.154-1.099h3.4619v0.87921h-3.5034c-0.25387 0-0.25387 0.43961 0 0.43961h3.965c0.50774 0 0.92317-0.39564 0.92317-0.87921s-0.41543-0.87921-0.92317-0.87921h-4.8466c-0.89086 0-1.6155 0.69018-1.6155 1.5386v0.49827c0.03564 1.0289-0.10098 1.3491-0.40986 0.96058-0.32224-0.40535-0.51331-0.91064-0.51331-1.4588z" />
  </defs>
  <g fill="none" fill-rule="evenodd">
    <g transform="translate(-891 -423)">
      <g transform="translate(380 217)">
        <g transform="translate(0 153)">
          <g transform="translate(475 46)">
            <g transform="translate(36 7)">
              <g transform="translate(16.341 .32875)">
                <path d="m3 0.5c-1.3807 0-2.5 1.1193-2.5 2.5v16.647c0 1.3807 1.1193 2.5 2.5 2.5h11.283c1.3807 0 2.5-1.1193 2.5-2.5v-16.647c0-1.3807-1.1193-2.5-2.5-2.5h-11.283z" fill="#EEF8FF" stroke="#97CDF4" />
                <circle cx="7.6352" cy="4.8466" r="2.1541" fill="#97CDF4" />
                <path d="m5.3291e-14 12.026l2.7807-2.7807c0.78105-0.78105 2.0474-0.78105 2.8284 0l0.70822 0.70822c0.78105 0.78105 2.0474 0.78105 2.8284 0l4.0461-4.0461c0.73144-0.73144 1.8999-0.78444 2.6946-0.12223l1.1788 0.98233-0.026239 12.856c-0.0033766 1.6545-1.3455 2.9939-3 2.9939h-11.039c-1.6569 0-3-1.3431-3-3l-1.4855e-10 -7.5918z" fill="#97CDF4" />
              </g>
              <g transform="translate(13.876 18.045) rotate(-25) translate(-9 -12)">
                <path d="m3 1.4232c-1.3807 0-2.5 1.1193-2.5 2.5v16.647c0 1.3807 1.1193 2.5 2.5 2.5h11.283c1.3807 0 2.5-1.1193 2.5-2.5v-16.647c0-1.3807-1.1193-2.5-2.5-2.5h-11.283z" fill="#EEF8FF" stroke="#97CDF4" />
                <mask fill="white">
                  <use xlink:href="#a" />
                </mask>
                <use transform="translate(13.229 5.0257) scale(1 -1) rotate(-90) translate(-13.229 -5.0257)" fill="#97CDF4" fill-rule="nonzero" xlink:href="#a" />
              </g>
              <g transform="translate(35.854 20.094) rotate(25) translate(-9 -11.5)">
                <path d="m16.783 5.9686l-5.4854-5.4686h-8.2979c-1.3807 0-2.5 1.1193-2.5 2.5v16.647c0 1.3807 1.1193 2.5 2.5 2.5h11.283c1.3807 0 2.5-1.1193 2.5-2.5v-13.678z" fill="#EEF8FF" stroke="#97CDF4" />
                <path d="m11.324 0l5.9598 5.9598h-2.9598c-1.6569 0-3-1.3431-3-3v-2.9598z" fill="#97CDF4" />
              </g>
              <path d="m9.9538 39.429c-5.3848-0.25558-9.6721-4.7023-9.6721-10.15 0-5.6123 4.5497-10.162 10.162-10.162 0.57784 0 1.1444 0.04823 1.6959 0.14088 0.59712-4.0146 4.0474-7.0938 8.2143-7.0938 3.7752 0 6.9622 2.5275 7.9721 5.9882 0.76743-0.43569 1.6542-0.68438 2.5989-0.68438 2.9191 0 5.2855 2.3746 5.2855 5.3038 0 0.5936-0.097178 1.1644-0.27644 1.6973 0.54506-0.11911 1.1118-0.18195 1.6935-0.18195 4.2744 0 7.7394 3.3923 7.7394 7.5769 0 4.0006-3.167 7.277-7.1805 7.5574l0.0060178 0.019456h-14.728-13.508l-0.0023979-0.0116z" fill="#fff" />
              <path d="m0.28178 29.278c0-5.6123 4.5497-10.162 10.162-10.162 0.57784 0 1.1444 0.04823 1.6959 0.14088 0.59712-4.0146 4.0474-7.0938 8.2143-7.0938 3.7752 0 6.9622 2.5275 7.9721 5.9882 0.76743-0.43569 1.6542-0.68438 2.5989-0.68438 2.9191 0 5.2855 2.3746 5.2855 5.3038 0 0.5936-0.097178 1.1644-0.27644 1.6973 0.54506-0.11911 1.1118-0.18195 1.6935-0.18195 4.2744 0 7.7394 3.3923 7.7394 7.5769 0 4.0006-3.167 7.277-7.1805 7.5574l0.0060178 0.019456h-14.728-13.508l-0.0023979-0.0116c-5.3848-0.25558-9.6721-4.7023-9.6721-10.15zm37.591 9.1619l0.24367-0.017024c3.5148-0.24557 6.2502-3.1095 6.2502-6.5599 0-3.6275-3.0127-6.5769-6.7394-6.5769-0.50312 0-0.99841 0.053639-1.48 0.15889l-1.7239 0.37674 0.56262-1.6725c0.14789-0.43965 0.22425-0.9032 0.22425-1.3785 0-2.3777-1.9194-4.3038-4.2855-4.3038-0.74929 0-1.4684 0.1925-2.1052 0.554l-1.0995 0.62422-0.35418-1.2137c-0.90426-3.0988-3.7473-5.2683-7.0121-5.2683-3.6289 0-6.6946 2.6737-7.2252 6.2409l-0.14991 1.0079-1.0049-0.16882c-0.50198-0.084334-1.0132-0.12706-1.5302-0.12706-5.06 0-9.1619 4.1019-9.1619 9.1619 0 4.8954 3.8491 8.9203 8.7195 9.1515l0.22071 0.010476h27.651z" fill="#97CDF4" fill-rule="nonzero" />
              <polygon points="16.062 36.96 29.587 36.96 29.587 39.44 16.062 39.44" fill="#fff" />
              <path d="m19.543 37.711h1.984v4.2726c0 0.27614 0.22386 0.5 0.5 0.5h1.5944c0.27614 0 0.5-0.22386 0.5-0.5v-4.2726h1.984c0.27614 0 0.5-0.22386 0.5-0.5 0-0.10254-0.031524-0.20259-0.090299-0.28661l-3.2812-4.6904c-0.15829-0.22627-0.47004-0.28138-0.69631-0.12309-0.047912 0.033518-0.089574 0.075179-0.12309 0.12309l-3.2812 4.6904c-0.15829 0.22627-0.10318 0.53802 0.12309 0.69631 0.084018 0.058775 0.18407 0.090299 0.28661 0.090299z" fill="#97CDF4" />
            </g>
          </g>
        </g>
      </g>
    </g>
  </g>
</svg>