<svg width="16" height="16" viewBox="0 0 16 16" fill="none" xmlns="http://www.w3.org/2000/svg">
<mask id="mask0" mask-type="alpha" maskUnits="userSpaceOnUse" x="0" y="3" width="16" height="10">
<path d="M12.491 6.85732C12.0755 4.84482 10.2238 3.33398 7.99935 3.33398C6.23324 3.33398 4.69935 4.29065 3.93546 5.69065C2.09602 5.87732 0.666016 7.36482 0.666016 9.16732C0.666016 11.0982 2.3099 12.6673 4.33268 12.6673H12.2771C13.9638 12.6673 15.3327 11.3607 15.3327 9.75065C15.3327 8.21065 14.0799 6.96232 12.491 6.85732ZM9.22157 8.58398V10.9173H6.77713V8.58398H4.94379L7.78546 5.87148C7.90768 5.75482 8.09713 5.75482 8.21935 5.87148L11.0549 8.58398H9.22157Z" fill="white"/>
</mask>
<g mask="url(#mask0)">
<rect width="16" height="16" fill="white"/>
</g>
</svg>
