<?xml version="1.0" encoding="UTF-8"?>

<svg version="1.1" viewBox="0 0 16 16" 
  xmlns="http://www.w3.org/2000/svg" 
  xmlns:xlink="http://www.w3.org/1999/xlink">
  <defs>
    <path d="M12.4416486,12.2151984 C12.3663559,13.3445888 11.4283078,14.2221825 10.2964105,14.2221825 L6.73802433,14.2221825 C5.606127,14.2221825 4.66807893,13.3445888 4.59278624,12.2151984 L4.06985632,4.37124958 L3.55,4.37124958 C3.16340068,4.37124958 2.85,4.0578489 2.85,3.67124958 C2.85,3.28465025 3.16340068,2.97124958 3.55,2.97124958 L13.45,2.97124958 C13.8365993,2.97124958 14.15,3.28465025 14.15,3.67124958 C14.15,4.0578489 13.8365993,4.37124958 13.45,4.37124958 L12.9645785,4.37124958 L12.4416486,12.2151984 Z M6.49395434,1.54754489 C6.49395434,1.16230148 6.80625583,0.85 7.19149923,0.85 L9.74670872,0.85 C10.1319521,0.85 10.4442536,1.16230148 10.4442536,1.54754489 C10.4442536,1.9327883 10.1319521,2.24508978 9.74670872,2.24508978 L7.19149923,2.24508978 C6.80625583,2.24508978 6.49395434,1.9327883 6.49395434,1.54754489 Z M5.46804286,4.37124958 L5.97886848,12.0336339 C6.00863536,12.4801371 6.37949157,12.8270927 6.82698586,12.8270927 L10.207449,12.8270927 C10.6549432,12.8270927 11.0257995,12.4801371 11.0555663,12.0336339 L11.566392,4.37124958 L5.46804286,4.37124958 Z M9.20245511,11.0747341 C9.20245511,11.4613334 8.88905443,11.7747341 8.50245511,11.7747341 C8.11585579,11.7747341 7.80245511,11.4613334 7.80245511,11.0747341 L7.80245511,6.1907134 C7.80245511,5.80411408 8.11585579,5.4907134 8.50245511,5.4907134 C8.88905443,5.4907134 9.20245511,5.80411408 9.20245511,6.1907134 L9.20245511,11.0747341 Z" id="path-1"></path>
  </defs>
  <g fill="none" fill-rule="evenodd" stroke="none" stroke-width="1">
    <mask fill="white" id="mask-2">
      <use xlink:href="#path-1"></use>
    </mask>
    <use fill="#979797" fill-rule="nonzero" xlink:href="#path-1"></use>
    <g fill="#BDBFC9" mask="url(#mask-2)">
      <rect height="16" rx="3" width="16" x="0" y="0"></rect>
    </g>
  </g>
</svg>