<svg width="21" height="18" viewBox="0 0 21 18" fill="none" xmlns="http://www.w3.org/2000/svg">
<path fill-rule="evenodd" clip-rule="evenodd" d="M13.6296 2.3122C12.9861 1.84981 12.2368 1.52657 11.4267 1.3853C11.1136 1.31391 10.8793 1.03433 10.8793 0.7C10.8793 0.313401 11.1927 0 11.5793 0C11.6375 0 11.6941 0.00711571 11.7482 0.0205253C12.7184 0.201741 13.6176 0.590319 14.3964 1.1395C14.6015 1.26156 14.739 1.48548 14.739 1.7415C14.739 2.1281 14.4256 2.4415 14.039 2.4415C13.8863 2.4415 13.745 2.3926 13.6299 2.30961L13.6296 2.3122ZM6.06667 14.6054C6.06667 14.2188 5.75327 13.9054 5.36667 13.9054H5.006C5.01849 13.9056 5.02474 13.9057 5.03098 13.906C5.03722 13.9063 5.04345 13.9068 5.05591 13.9078H5.05587C4.96479 13.9059 4.94333 13.9054 4.92187 13.9054L4.9 13.9054C2.967 13.9054 1.4 12.3384 1.4 10.4054C1.4 8.61236 2.75527 7.11402 4.52351 6.92534C4.86031 6.88941 5.12306 6.61749 5.14743 6.27965C5.31863 3.90612 7.0277 1.97586 9.26556 1.44834C9.61459 1.40874 9.88578 1.11246 9.88578 0.75284C9.88578 0.366241 9.57238 0.0528401 9.18578 0.0528401C9.16253 0.0528401 9.13954 0.0539734 9.11688 0.0561879C9.10215 0.0546626 9.06279 0.0602071 8.9988 0.0728214C6.32622 0.67898 4.24099 2.86915 3.81367 5.62623C1.61611 6.12295 0 8.08806 0 10.4054C0 13.1116 2.19381 15.3054 4.9 15.3054L4.95007 15.3053L5.006 15.3054H5.36667C5.75327 15.3054 6.06667 14.992 6.06667 14.6054ZM15.82 13.9054H15.4C15.0134 13.9054 14.7 14.2188 14.7 14.6054C14.7 14.992 15.0134 15.3054 15.4 15.3054H15.82C15.8529 15.3054 15.8857 15.3043 15.9183 15.3021C15.9787 15.3043 16.0393 15.3054 16.1 15.3054C18.8062 15.3054 21 13.1116 21 10.4054C21 8.08806 19.3839 6.12295 17.1863 5.62623C17.0746 4.90521 16.8494 4.22295 16.5301 3.59766C16.4189 3.358 16.1762 3.19178 15.8947 3.19178C15.5081 3.19178 15.1947 3.50518 15.1947 3.89178C15.1947 4.03246 15.2362 4.16345 15.3076 4.27317C15.6103 4.88556 15.801 5.56481 15.8526 6.27965C15.8769 6.61749 16.1397 6.88941 16.4765 6.92534C18.2447 7.11402 19.6 8.61236 19.6 10.4054C19.6 12.3384 18.033 13.9054 16.1 13.9054C16.0449 13.9054 15.9899 13.9041 15.9352 13.9016L15.826 13.9051L15.82 13.9054ZM8.08037 11.7486L9.95416 9.87478L9.94977 16.6125C9.94955 16.9562 10.228 17.2349 10.5717 17.2351C10.9153 17.2353 11.194 16.9569 11.1942 16.6133L11.1986 9.88244L13.0657 11.7495C13.3087 11.9926 13.7027 11.9926 13.9458 11.7495C14.1888 11.5066 14.1888 11.1126 13.9459 10.8696L10.6113 7.53323C10.5905 7.51237 10.5567 7.51236 10.5358 7.53322L7.20042 10.8686C6.95743 11.1116 6.95743 11.5056 7.20042 11.7486C7.44341 11.9916 7.83738 11.9916 8.08037 11.7486Z" fill="#979797"/>
<mask id="mask0" mask-type="alpha" maskUnits="userSpaceOnUse" x="0" y="0" width="21" height="18">
<path fill-rule="evenodd" clip-rule="evenodd" d="M13.6296 2.3122C12.9861 1.84981 12.2368 1.52657 11.4267 1.3853C11.1136 1.31391 10.8793 1.03433 10.8793 0.7C10.8793 0.313401 11.1927 0 11.5793 0C11.6375 0 11.6941 0.00711571 11.7482 0.0205253C12.7184 0.201741 13.6176 0.590319 14.3964 1.1395C14.6015 1.26156 14.739 1.48548 14.739 1.7415C14.739 2.1281 14.4256 2.4415 14.039 2.4415C13.8863 2.4415 13.745 2.3926 13.6299 2.30961L13.6296 2.3122ZM6.06667 14.6054C6.06667 14.2188 5.75327 13.9054 5.36667 13.9054H5.006C5.01849 13.9056 5.02474 13.9057 5.03098 13.906C5.03722 13.9063 5.04345 13.9068 5.05591 13.9078H5.05587C4.96479 13.9059 4.94333 13.9054 4.92187 13.9054L4.9 13.9054C2.967 13.9054 1.4 12.3384 1.4 10.4054C1.4 8.61236 2.75527 7.11402 4.52351 6.92534C4.86031 6.88941 5.12306 6.61749 5.14743 6.27965C5.31863 3.90612 7.0277 1.97586 9.26556 1.44834C9.61459 1.40874 9.88578 1.11246 9.88578 0.75284C9.88578 0.366241 9.57238 0.0528401 9.18578 0.0528401C9.16253 0.0528401 9.13954 0.0539734 9.11688 0.0561879C9.10215 0.0546626 9.06279 0.0602071 8.9988 0.0728214C6.32622 0.67898 4.24099 2.86915 3.81367 5.62623C1.61611 6.12295 0 8.08806 0 10.4054C0 13.1116 2.19381 15.3054 4.9 15.3054L4.95007 15.3053L5.006 15.3054H5.36667C5.75327 15.3054 6.06667 14.992 6.06667 14.6054ZM15.82 13.9054H15.4C15.0134 13.9054 14.7 14.2188 14.7 14.6054C14.7 14.992 15.0134 15.3054 15.4 15.3054H15.82C15.8529 15.3054 15.8857 15.3043 15.9183 15.3021C15.9787 15.3043 16.0393 15.3054 16.1 15.3054C18.8062 15.3054 21 13.1116 21 10.4054C21 8.08806 19.3839 6.12295 17.1863 5.62623C17.0746 4.90521 16.8494 4.22295 16.5301 3.59766C16.4189 3.358 16.1762 3.19178 15.8947 3.19178C15.5081 3.19178 15.1947 3.50518 15.1947 3.89178C15.1947 4.03246 15.2362 4.16345 15.3076 4.27317C15.6103 4.88556 15.801 5.56481 15.8526 6.27965C15.8769 6.61749 16.1397 6.88941 16.4765 6.92534C18.2447 7.11402 19.6 8.61236 19.6 10.4054C19.6 12.3384 18.033 13.9054 16.1 13.9054C16.0449 13.9054 15.9899 13.9041 15.9352 13.9016L15.826 13.9051L15.82 13.9054ZM8.08037 11.7486L9.95416 9.87478L9.94977 16.6125C9.94955 16.9562 10.228 17.2349 10.5717 17.2351C10.9153 17.2353 11.194 16.9569 11.1942 16.6133L11.1986 9.88244L13.0657 11.7495C13.3087 11.9926 13.7027 11.9926 13.9458 11.7495C14.1888 11.5066 14.1888 11.1126 13.9459 10.8696L10.6113 7.53323C10.5905 7.51237 10.5567 7.51236 10.5358 7.53322L7.20042 10.8686C6.95743 11.1116 6.95743 11.5056 7.20042 11.7486C7.44341 11.9916 7.83738 11.9916 8.08037 11.7486Z" fill="white"/>
</mask>
<g mask="url(#mask0)">
<rect x="-2" y="-3" width="24" height="24" rx="3" fill="white"/>
</g>
</svg>
