<?xml version="1.0" encoding="UTF-8"?>
<svg width="20px" height="20px" viewBox="0 0 20 20" version="1.1" xmlns="http://www.w3.org/2000/svg" xmlns:xlink="http://www.w3.org/1999/xlink">
    <!-- Generator: Sketch 52.2 (67145) - http://www.bohemiancoding.com/sketch -->
    <title>header / icn / burger-menu</title>
    <desc>Created with Sketch.</desc>
    <g id="header-/-icn-/-burger-menu" stroke="none" stroke-width="1" fill="none" fill-rule="evenodd">
        <path d="M2.66666667,3 L17.3333333,3 C17.7015232,3 18,3.44771525 18,4 C18,4.55228475 17.7015232,5 17.3333333,5 L2.66666667,5 C2.29847683,5 2,4.55228475 2,4 C2,3.44771525 2.29847683,3 2.66666667,3 Z M2.71428571,9 L11.2857143,9 C11.6802034,9 12,9.44771525 12,10 C12,10.5522847 11.6802034,11 11.2857143,11 L2.71428571,11 C2.31979661,11 2,10.5522847 2,10 C2,9.44771525 2.31979661,9 2.71428571,9 Z M2.73684211,15 L15.2631579,15 C15.6701046,15 16,15.4477153 16,16 C16,16.5522847 15.6701046,17 15.2631579,17 L2.73684211,17 C2.32989545,17 2,16.5522847 2,16 C2,15.4477153 2.32989545,15 2.73684211,15 Z" id="Combined-Shape" stroke="#EEF1F6" stroke-width="0.6" fill="#EEF1F6"></path>
    </g>
</svg>